SplineFontDB: 3.0
FontName: Pontano
FullName: Pontano Sans
FamilyName: Pontano Sans
Weight: Regular
Copyright: Copyright (c) 2011 by vernon adams. All rights reserved.
Version: 
FONDName: Pontano Sans
ItalicAngle: 0
UnderlinePosition: -205
UnderlineWidth: 102
Ascent: 1638
Descent: 410
UFOAscent: 1504
UFODescent: -391
LayerCount: 2
Layer: 0 0 "Back"  1
Layer: 1 0 "Fore"  0
NeedsXUIDChange: 1
FSType: 8
OS2Version: 0
OS2_WeightWidthSlopeOnly: 0
OS2_UseTypoMetrics: 0
CreationTime: 1330353852
ModificationTime: 1330359248
PfmFamily: 17
TTFWeight: 400
TTFWidth: 5
LineGap: 0
VLineGap: 0
Panose: 0 0 0 0 0 0 0 0 0 0
OS2TypoAscent: 2025
OS2TypoAOffset: 0
OS2TypoDescent: -600
OS2TypoDOffset: 0
OS2TypoLinegap: 0
OS2WinAscent: 2025
OS2WinAOffset: 0
OS2WinDescent: 600
OS2WinDOffset: 0
HheadAscent: 2025
HheadAOffset: 0
HheadDescent: -600
HheadDOffset: 0
OS2SubXSize: 1434
OS2SubYSize: 1331
OS2SubXOff: 0
OS2SubYOff: 287
OS2SupXSize: 1434
OS2SupYSize: 1331
OS2SupXOff: 0
OS2SupYOff: 977
OS2StrikeYSize: 102
OS2StrikeYPos: 512
OS2Vendor: 'newt'
Lookup: 258 0 0 "'kern' Horizontal Kerning in Latin lookup 0"  {"'kern' Horizontal Kerning in Latin lookup 0 subtable"  } ['kern' ('latn' <'dflt' > ) ]
MarkAttachClasses: 1
DEI: 91125
LangName: 1033 "" "" "" "" "" "" "" "Pontano Sans is a trademark of vernon adams." "vernon adams" "" "Copyright (c) 2011 by vernon adams. All rights reserved." "" "newtypography.co.uk" "" "" "" "" "" "Pontano Sans" 
PickledData: "(dp1
S'com.typemytype.robofont.compileSettings.autohint'
p2
I0
sS'com.typemytype.robofont.compileSettings.decompose'
p3
I0
sS'com.typemytype.robofont.foreground.layerStrokeColor'
p4
(F0.5
F0
F0.5
F0.69999999999999996
tp5
sS'com.typemytype.robofont.compileSettings.path'
p6
S'/Users/vern/GitHub/PontanoSansFont/PontanoSans.otf'
p7
sS'com.typemytype.robofont.shouldAddPointsInSplineConversion'
p8
I00
sS'com.typemytype.robofont.compileSettings.checkOutlines'
p9
I0
sS'com.typemytype.robofont.compileSettings.releaseMode'
p10
I0

StartChar: A
Encoding: 34 65 0
Width: 1278
VWidth: 0
Flags: W
PickledData: "(dp1
S'com.typemytype.robofont.layerData'
p2
(dp3
S'back'
p4
(dp5
S'name'
p6
S'A'
sS'lib'
p7
(dp8
sS'unicodes'
p9
(tsS'width'
p10
I1278
sS'contours'
p11
(tsS'components'
p12
(tsS'anchors'
p13
(tsss."
LayerCount: 2
Fore
SplineSet
56 0 m 1
 542 1464 l 1
 734 1464 l 1
 1222 0 l 1
 1072 0 l 1
 938 399 l 1
 330 399 l 1
 202 0 l 1
 56 0 l 1
633 1362 m 1
 605 1274 567 1148 533 1040 c 2
 364 508 l 1
 904 508 l 1
 734 1041 l 2
 700 1147 660 1274 633 1362 c 1
639 1464 m 0
1150 10 m 0
EndSplineSet
EndChar

StartChar: AE
Encoding: 176 198 1
Width: 2272
VWidth: 0
Flags: W
PickledData: "(dp1
S'com.typemytype.robofont.layerData'
p2
(dp3
S'back'
p4
(dp5
S'name'
p6
S'AE'
p7
sS'lib'
p8
(dp9
sS'unicodes'
p10
(tsS'width'
p11
I2272
sS'contours'
p12
(tsS'components'
p13
(tsS'anchors'
p14
(tsss."
LayerCount: 2
Fore
SplineSet
576 508 m 1
 1118 508 l 1
 1118 1364 l 1
 1071 1298 1023 1233 976 1167 c 1
 843 948 709 728 576 508 c 1
107 0 m 1
 1014 1464 l 1
 2149 1464 l 1
 2149 1352 l 1
 1262 1352 l 1
 1262 838 l 1
 1987 838 l 1
 1987 800 1986 761 1986 723 c 1
 1262 723 l 1
 1262 113 l 1
 2159 113 l 1
 2159 0 l 1
 1115 0 l 1
 1115 399 l 1
 515 399 l 1
 268 0 l 1
 107 0 l 1
1136 1464 m 1
 1136 1464 l 1
1136 1464 m 0
EndSplineSet
EndChar

StartChar: B
Encoding: 35 66 11
Width: 1284
VWidth: 0
Flags: W
PickledData: "(dp1
S'com.typemytype.robofont.layerData'
p2
(dp3
S'back'
p4
(dp5
S'name'
p6
S'B'
sS'lib'
p7
(dp8
sS'unicodes'
p9
(tsS'width'
p10
I1284
sS'contours'
p11
(tsS'components'
p12
(tsS'anchors'
p13
(tsss."
LayerCount: 2
Fore
SplineSet
285 1357 m 1
 285 837 l 1
 513 837 l 2
 867 837 1023 851 1023 1100 c 0
 1023 1348 821 1357 586 1357 c 2
 285 1357 l 1
286 730 m 1
 286 107 l 1
 600 107 l 2
 821 107 1061 121 1061 415 c 0
 1061 718 841 730 581 730 c 0
 286 730 l 1
140 0 m 1
 140 1464 l 1
 579 1464 l 2
 881 1464 1162 1416.25433277 1162 1095 c 0
 1162 935 1087 824 891 790 c 1
 1106 747 1206 604 1206 413 c 0
 1206 85 1001 0 543 0 c 2
 140 0 l 1
EndSplineSet
EndChar

StartChar: C
Encoding: 36 67 12
Width: 1357
VWidth: 0
Flags: W
PickledData: "(dp1
S'com.typemytype.robofont.layerData'
p2
(dp3
S'back'
p4
(dp5
S'name'
p6
S'C'
sS'lib'
p7
(dp8
sS'unicodes'
p9
(tsS'width'
p10
I1357
sS'contours'
p11
(tsS'components'
p12
(tsS'anchors'
p13
(tsss."
LayerCount: 2
Fore
SplineSet
736 1491 m 0
 994 1491 1195 1365 1267 1102 c 1
 1133 1071 l 1
 1087 1248 962 1374 731 1374 c 0
 386 1374 265 1135 265 738 c 0
 265 311 369 93 734 93 c 0
 957 93 1085 205 1147 377 c 1
 1272 338 l 1
 1190 90 982 -25 726 -25 c 0
 321 -25 112 195 112 738 c 0
 112 1269 353 1491 736 1491 c 0
679 1464 m 0
679 0 m 0
EndSplineSet
EndChar

StartChar: D
Encoding: 37 68 18
Width: 1399
VWidth: 0
Flags: W
PickledData: "(dp1
S'com.typemytype.robofont.layerData'
p2
(dp3
S'back'
p4
(dp5
S'name'
p6
S'D'
sS'lib'
p7
(dp8
sS'unicodes'
p9
(tsS'width'
p10
I1399
sS'contours'
p11
(tsS'components'
p12
(tsS'anchors'
p13
(tsss."
LayerCount: 2
Fore
SplineSet
653 1350 m 2
 294 1350 l 1
 294 114 l 1
 597 114 l 2
 1008 114 1144 289 1144 737 c 0
 1144 1130 1037 1350 653 1350 c 2
148 1464 m 1
 652 1464 l 2
 1064 1464 1287 1280 1287 738 c 0
 1287 203 1083 0 645 0 c 2
 148 0 l 1
 148 1464 l 1
706 1464 m 1
 706 1464 l 1
700 1464 m 0
700 732 m 0
EndSplineSet
EndChar

StartChar: E
Encoding: 38 69 22
Width: 1178
VWidth: 0
Flags: W
PickledData: "(dp1
S'com.typemytype.robofont.layerData'
p2
(dp3
S'back'
p4
(dp5
S'name'
p6
S'E'
sS'lib'
p7
(dp8
sS'unicodes'
p9
(tsS'width'
p10
I1178
sS'contours'
p11
(tsS'components'
p12
(tsS'anchors'
p13
(tsss."
LayerCount: 2
Fore
SplineSet
1128 0 m 1
 148 0 l 1
 148 1464 l 1
 1117 1464 l 1
 1117 1352 l 1
 294 1352 l 1
 294 838 l 1
 1010 838 l 1
 1010 723 l 1
 294 723 l 1
 294 113 l 1
 1128 113 l 1
 1128 0 l 1
589 1464 m 0
589 0 m 0
1060 10 m 0
EndSplineSet
EndChar

StartChar: Eth
Encoding: 190 208 30
Width: 1391
VWidth: 0
Flags: W
PickledData: "(dp1
S'com.typemytype.robofont.layerData'
p2
(dp3
S'back'
p4
(dp5
S'name'
p6
S'Eth'
p7
sS'lib'
p8
(dp9
sS'unicodes'
p10
(tsS'width'
p11
I1391
sS'contours'
p12
(tsS'components'
p13
(tsS'anchors'
p14
(tsss."
LayerCount: 2
Fore
SplineSet
0 702 m 1
 0 788 l 1
 140 788 l 1
 140 1464 l 1
 644 1464 l 2
 1056 1464 1270 1280 1270 738 c 0
 1270 203 1075 0 637 0 c 2
 140 0 l 1
 140 702 l 1
 0 702 l 1
645 1350 m 2
 286 1350 l 1
 286 788 l 1
 454 788 l 1
 454 702 l 1
 286 702 l 1
 286 114 l 1
 589 114 l 2
 1000 114 1127 289 1127 737 c 0
 1127 1130 1029 1350 645 1350 c 2
EndSplineSet
EndChar

StartChar: Euro
Encoding: 191 8364 31
Width: 1357
VWidth: 0
Flags: W
PickledData: "(dp1
S'com.typemytype.robofont.layerData'
p2
(dp3
S'back'
p4
(dp5
S'name'
p6
S'Euro'
p7
sS'lib'
p8
(dp9
sS'unicodes'
p10
(tsS'width'
p11
I1357
sS'contours'
p12
(tsS'components'
p13
(tsS'anchors'
p14
(tsss."
LayerCount: 2
Fore
SplineSet
1224 340 m 1
 1102 379 l 1
 1039 205 944 97 719 95 c 1
 465 95 310 262 275 586 c 1
 601 586 l 1
 601 672 l 1
 268 672 l 1
 267 694 267 778 268 796 c 1
 601 796 l 1
 601 882 l 1
 274 882 l 1
 305 1189 444 1376 718 1376 c 0
 954 1376 1038 1254 1085 1073 c 1
 1219 1104 l 1
 1144 1376 949 1493 712 1493 c 0
 396 1493 163 1301 121 882 c 1
 -53 882 l 1
 -53 796 l 1
 115 796 l 1
 114 778 114 694 115 672 c 1
 -53 672 l 1
 -53 586 l 1
 122 586 l 1
 168 159 411 -23 716 -23 c 0
 1012 -23 1153 108 1224 340 c 1
EndSplineSet
EndChar

StartChar: F
Encoding: 39 70 32
Width: 1139
VWidth: 0
Flags: W
PickledData: "(dp1
S'com.typemytype.robofont.layerData'
p2
(dp3
S'back'
p4
(dp5
S'name'
p6
S'F'
sS'lib'
p7
(dp8
sS'unicodes'
p9
(tsS'width'
p10
I1139
sS'contours'
p11
(tsS'components'
p12
(tsS'anchors'
p13
(tsss."
LayerCount: 2
Fore
SplineSet
1117 1352 m 1
 294 1352 l 1
 294 830 l 1
 1009 830 l 1
 1009 716 l 1
 294 716 l 1
 294 0 l 1
 148 0 l 1
 148 1464 l 1
 1117 1464 l 1
 1117 1352 l 1
EndSplineSet
EndChar

StartChar: G
Encoding: 40 71 33
Width: 1383
VWidth: 0
Flags: W
PickledData: "(dp1
S'com.typemytype.robofont.layerData'
p2
(dp3
S'back'
p4
(dp5
S'name'
p6
S'G'
sS'lib'
p7
(dp8
sS'unicodes'
p9
(tsS'width'
p10
I1383
sS'contours'
p11
(tsS'components'
p12
(tsS'anchors'
p13
(tsss."
LayerCount: 2
Fore
SplineSet
740 1491 m 0
 963 1491 1156 1381 1241 1150 c 1
 1119 1096 l 1
 1051 1280 920 1374 739 1374 c 0
 405 1374 272 1149 272 721 c 0
 272 319 386 93 724 93 c 0
 890 93 1109 203 1109 444 c 2
 1109 664 l 1
 737 664 l 1
 737 789 l 1
 1253 789 l 1
 1253 581 l 2
 1253 428 1243 0 1243 0 c 1
 1150 0 l 1
 1118 191 l 1
 1045 68 890 -24 706 -24 c 0
 365 -24 119 165 119 722 c 0
 119 1271 365 1491 740 1491 c 0
692 1464 m 0
692 0 m 0
EndSplineSet
EndChar

StartChar: H
Encoding: 41 72 36
Width: 1457
VWidth: 0
Flags: W
PickledData: "(dp1
S'com.typemytype.robofont.layerData'
p2
(dp3
S'back'
p4
(dp5
S'name'
p6
S'H'
sS'lib'
p7
(dp8
sS'unicodes'
p9
(tsS'width'
p10
I1457
sS'contours'
p11
(tsS'components'
p12
(tsS'anchors'
p13
(tsss."
LayerCount: 2
Fore
SplineSet
1164 836 m 1
 1164 1464 l 1
 1309 1464 l 1
 1309 0 l 1
 1164 0 l 1
 1164 720 l 1
 294 720 l 1
 294 0 l 1
 148 0 l 1
 148 1464 l 1
 294 1464 l 1
 294 836 l 1
 1164 836 l 1
729 1464 m 0
729 732 m 0
EndSplineSet
EndChar

StartChar: Hbar
Encoding: 96 294 37
Width: 1457
VWidth: 0
Flags: HW
PickledData: "(dp1
S'com.typemytype.robofont.layerData'
p2
(dp3
S'back'
p4
(dp5
S'name'
p6
S'Hbar'
p7
sS'lib'
p8
(dp9
sS'unicodes'
p10
(tsS'width'
p11
I1457
sS'contours'
p12
(tsS'components'
p13
(tsS'anchors'
p14
(tsss."
LayerCount: 2
Fore
SplineSet
88.2998046875 1143.59960938 m 1
 88.2998046875 1229.59960938 l 1
 1389.29980469 1229.59960938 l 1
 1389.29980469 1143.59960938 l 1
 88.2998046875 1143.59960938 l 1
1164 836 m 1
 1164 1464 l 1
 1309 1464 l 1
 1309 0 l 1
 1164 0 l 1
 1164 720 l 1
 294 720 l 1
 294 0 l 1
 148 0 l 1
 148 1464 l 1
 294 1464 l 1
 294 836 l 1
 1164 836 l 1
EndSplineSet
EndChar

StartChar: I
Encoding: 42 73 38
Width: 456
VWidth: 0
Flags: W
PickledData: "(dp1
S'com.typemytype.robofont.layerData'
p2
(dp3
S'back'
p4
(dp5
S'name'
p6
S'I'
sS'lib'
p7
(dp8
sS'unicodes'
p9
(tsS'width'
p10
I456
sS'contours'
p11
(tsS'components'
p12
(tsS'anchors'
p13
(tsss."
LayerCount: 2
Fore
SplineSet
301 0 m 1
 155 0 l 1
 155 1464 l 1
 301 1464 l 1
 301 0 l 1
228 1464 m 0
410 10 m 0
EndSplineSet
EndChar

StartChar: J
Encoding: 43 74 48
Width: 1043
VWidth: 0
Flags: W
PickledData: "(dp1
S'com.typemytype.robofont.layerData'
p2
(dp3
S'back'
p4
(dp5
S'name'
p6
S'J'
sS'lib'
p7
(dp8
sS'unicodes'
p9
(tsS'width'
p10
I1043
sS'contours'
p11
(tsS'components'
p12
(tsS'anchors'
p13
(tsss."
LayerCount: 2
Fore
SplineSet
106 334 m 1
 236 369 l 1
 274 198 340 93 502 93 c 1
 742 95 758 306 758 541 c 2
 758 1464 l 1
 903 1464 l 1
 903 544 l 2
 903 166 803 -25 490 -25 c 0
 264 -25 149 117 106 334 c 1
522 1464 m 0
EndSplineSet
EndChar

StartChar: K
Encoding: 44 75 50
Width: 1354
VWidth: 0
Flags: W
PickledData: "(dp1
S'com.typemytype.robofont.layerData'
p2
(dp3
S'back'
p4
(dp5
S'name'
p6
S'K'
sS'lib'
p7
(dp8
sS'unicodes'
p9
(tsS'width'
p10
I1354
sS'contours'
p11
(tsS'components'
p12
(tsS'anchors'
p13
(tsss."
LayerCount: 2
Fore
SplineSet
1180 1466 m 1
 665 926 l 1
 1244 0 l 1
 1077 0 l 1
 562 828 l 1
 294 553 l 1
 294 0 l 1
 148 0 l 1
 148 1466 l 1
 294 1466 l 1
 294 726 l 1
 1003 1466 l 1
 1180 1466 l 1
677 1464 m 0
677 0 m 0
EndSplineSet
EndChar

StartChar: L
Encoding: 45 76 52
Width: 1063
VWidth: 0
Flags: W
PickledData: "(dp1
S'com.typemytype.robofont.layerData'
p2
(dp3
S'back'
p4
(dp5
S'name'
p6
S'L'
sS'lib'
p7
(dp8
sS'unicodes'
p9
(tsS'width'
p10
I1063
sS'contours'
p11
(tsS'components'
p12
(tsS'anchors'
p13
(tsss."
LayerCount: 2
Fore
SplineSet
1041 0 m 1
 148 0 l 1
 148 1464 l 1
 294 1464 l 1
 294 113 l 1
 1041 113 l 1
 1041 0 l 1
532 1464 m 0
532 0 m 0
EndSplineSet
EndChar

StartChar: Lslash
Encoding: 202 321 56
Width: 1055
VWidth: 0
Flags: W
PickledData: "(dp1
S'com.typemytype.robofont.layerData'
p2
(dp3
S'back'
p4
(dp5
S'name'
p6
S'Lslash'
p7
sS'lib'
p8
(dp9
sS'unicodes'
p10
(tsS'width'
p11
I1055
sS'contours'
p12
(tsS'components'
p13
(tsS'anchors'
p14
(tsss."
LayerCount: 2
Fore
SplineSet
-1 658 m 1
 -1 784 l 1
 140 847 l 1
 140 1464 l 1
 286 1464 l 1
 286 913 l 1
 532 1024 l 1
 532 898 l 1
 286 787 l 1
 286 113 l 1
 1033 113 l 1
 1033 0 l 1
 140 0 l 1
 140 721 l 1
 -1 658 l 1
EndSplineSet
EndChar

StartChar: M
Encoding: 46 77 57
Width: 1645
VWidth: 0
Flags: W
PickledData: "(dp1
S'com.typemytype.robofont.layerData'
p2
(dp3
S'back'
p4
(dp5
S'name'
p6
S'M'
sS'lib'
p7
(dp8
sS'unicodes'
p9
(tsS'width'
p10
I1645
sS'contours'
p11
(tsS'components'
p12
(tsS'anchors'
p13
(tsss."
LayerCount: 2
Fore
SplineSet
148 0 m 1
 148 1463 l 1
 359 1463 l 1
 826 405 l 1
 1306 1462 l 1
 1497 1462 l 1
 1497 0 l 1
 1363 0 l 1
 1363 1275 l 1
 888 250 l 1
 753 250 l 1
 287 1281 l 1
 287 0 l 1
 148 0 l 1
EndSplineSet
EndChar

StartChar: N
Encoding: 47 78 58
Width: 1491
VWidth: 0
Flags: W
PickledData: "(dp1
S'com.typemytype.robofont.layerData'
p2
(dp3
S'back'
p4
(dp5
S'name'
p6
S'N'
sS'lib'
p7
(dp8
sS'unicodes'
p9
(tsS'width'
p10
I1491
sS'contours'
p11
(tsS'components'
p12
(tsS'anchors'
p13
(tsss."
LayerCount: 2
Fore
SplineSet
148 0 m 1
 148 1464 l 1
 311 1464 l 1
 1214 221 l 1
 1214 614 l 1
 1214 1464 l 1
 1343 1464 l 1
 1343 0 l 1
 1211 0 l 1
 279 1290 l 1
 279 1175 281 1009 281 875 c 2
 281 0 l 1
 148 0 l 1
746 1464 m 0
746 0 m 0
EndSplineSet
EndChar

StartChar: O
Encoding: 48 79 63
Width: 1445
VWidth: 0
Flags: W
PickledData: "(dp1
S'com.typemytype.robofont.layerData'
p2
(dp3
S'back'
p4
(dp5
S'name'
p6
S'O'
sS'lib'
p7
(dp8
sS'unicodes'
p9
(tsS'width'
p10
I1445
sS'contours'
p11
(tsS'components'
p12
(tsS'anchors'
p13
(tsss."
LayerCount: 2
Fore
SplineSet
721 1491 m 0
 1101 1491 1333 1281 1333 741 c 0
 1333 193 1111 -25 720 -25 c 0
 337 -25 112 186 112 740 c 0
 112 1282 342 1491 721 1491 c 0
720 1374 m 0
 368 1374 265 1130 265 741 c 0
 265 302 383 93 721 93 c 0
 1060 93 1178 298 1178 740 c 0
 1178 1130 1074 1374 720 1374 c 0
723 1464 m 0
EndSplineSet
EndChar

StartChar: OE
Encoding: 206 338 64
Width: 2279
VWidth: 0
Flags: W
PickledData: "(dp1
S'com.typemytype.robofont.layerData'
p2
(dp3
S'back'
p4
(dp5
S'name'
p6
S'OE'
p7
sS'lib'
p8
(dp9
sS'unicodes'
p10
(tsS'width'
p11
I2279
sS'contours'
p12
(tsS'components'
p13
(tsS'anchors'
p14
(tsss."
LayerCount: 2
Fore
SplineSet
792 1370 m 1
 422.568 1370 310 1128.01 310 738 c 0
 310 302 429 96 758 96 c 0
 985 96 1109 196 1164 403 c 1
 1181 499 1188 611 1188 738 c 0
 1188 1102 1115 1350 792 1370 c 1
795 1474 m 0
 954 1474 1085 1405 1166 1263 c 1
 1173 1330 1181 1398 1188 1464 c 1
 2155 1464 l 1
 2155 1352 l 1
 1335 1352 l 1
 1335 838 l 1
 2041 838 l 1
 2041 723 l 1
 1335 723 l 1
 1335 113 l 1
 2166 113 l 1
 2166 0 l 1
 1337 0 l 2
 1285 0 1235 -1 1185 -1 c 1
 1175 62 1166 126 1161 198 c 1
 1073 36 931 -21 746 -21 c 1
 370 -14 157 194 157 739 c 0
 157 1299.06 387.182 1474 795 1474 c 0
1140 1464 m 0
EndSplineSet
EndChar

StartChar: Oslash
Encoding: 210 216 72
Width: 1463
VWidth: 0
Flags: W
PickledData: "(dp1
S'com.typemytype.robofont.layerData'
p2
(dp3
S'back'
p4
(dp5
S'name'
p6
S'Oslash'
p7
sS'lib'
p8
(dp9
sS'unicodes'
p10
(tsS'width'
p11
I1463
sS'contours'
p12
(tsS'components'
p13
(tsS'anchors'
p14
(tsss."
LayerCount: 2
Fore
SplineSet
320 -204 m 1
 235 -160 l 1
 1126 1658 l 1
 1210 1614 l 1
 320 -204 l 1
732 1464 m 1
 732 1464 l 1
732 1464 m 0
EndSplineSet
Refer: 63 79 N 1 0 0 1 0 0 2
EndChar

StartChar: P
Encoding: 49 80 74
Width: 1254
VWidth: 0
Flags: W
PickledData: "(dp1
S'com.typemytype.robofont.layerData'
p2
(dp3
S'back'
p4
(dp5
S'name'
p6
S'P'
sS'lib'
p7
(dp8
sS'unicodes'
p9
(tsS'width'
p10
I1254
sS'contours'
p11
(tsS'components'
p12
(tsS'anchors'
p13
(tsss."
LayerCount: 2
Fore
SplineSet
148 0 m 1
 148 1464 l 1
 579 1464 l 2
 1055 1464 1231 1360 1231 1063 c 0
 1231 724 1032 635 520 635 c 2
 298 635 l 1
 298 0 l 1
 148 0 l 1
304 1350 m 1
 304 748 l 1
 576 748 l 1
 939 749.003 1083 807.193 1083 1055 c 0
 1083 1304 939 1350 556 1350 c 2
 304 1350 l 1
EndSplineSet
EndChar

StartChar: Q
Encoding: 50 81 75
Width: 1493
VWidth: 0
Flags: W
PickledData: "(dp1
S'com.typemytype.robofont.layerData'
p2
(dp3
S'back'
p4
(dp5
S'name'
p6
S'Q'
sS'lib'
p7
(dp8
sS'unicodes'
p9
(tsS'width'
p10
I1493
sS'contours'
p11
(tsS'components'
p12
(tsS'anchors'
p13
(tsss."
LayerCount: 2
Fore
SplineSet
1305 -295 m 1
 1014 30 l 1
 1014.14 30.1602 l 1
 931.128 -7.48621 832.65 -25 720 -25 c 0
 337 -25 112 186 112 740 c 0
 112 1282 342 1491 721 1491 c 0
 1101 1491 1333 1281 1333 741 c 0
 1333 419.082 1256.39 211.043 1113.92 94.1787 c 1
 1392 -213 l 1
 1305 -295 l 1
720 1374 m 0
 368 1374 265 1130 265 741 c 0
 265 302 383 93 721 93 c 0
 1060 93 1178 298 1178 740 c 0
 1178 1130 1074 1374 720 1374 c 0
EndSplineSet
EndChar

StartChar: R
Encoding: 51 82 76
Width: 1328
VWidth: 0
Flags: W
PickledData: "(dp1
S'com.typemytype.robofont.layerData'
p2
(dp3
S'back'
p4
(dp5
S'name'
p6
S'R'
sS'lib'
p7
(dp8
sS'unicodes'
p9
(tsS'width'
p10
I1328
sS'contours'
p11
(tsS'components'
p12
(tsS'anchors'
p13
(tsss."
LayerCount: 2
Fore
SplineSet
1234 1075 m 0
 1234 875.952 1122.58 752.323 907 695 c 1
 1247 0 l 1
 1091 0 l 1
 759 673 l 1
 298 673 l 1
 298 0 l 1
 148 0 l 1
 148 1463 l 1
 653 1464 l 2
 1040 1464 1234 1337 1234 1075 c 0
304 1356 m 1
 304 786 l 1
 638 786 l 2
 852 786 1078 816 1078 1070 c 0
 1078 1331 838 1356 637 1356 c 2
 304 1356 l 1
664 1464 m 0
664 0 m 0
EndSplineSet
EndChar

StartChar: S
Encoding: 52 83 80
Width: 1232
VWidth: 0
Flags: W
PickledData: "(dp1
S'com.typemytype.robofont.layerData'
p2
(dp3
S'back'
p4
(dp5
S'name'
p6
S'S'
sS'lib'
p7
(dp8
sS'unicodes'
p9
(tsS'width'
p10
I1232
sS'contours'
p11
(tsS'components'
p12
(tsS'anchors'
p13
(tsss."
LayerCount: 2
Fore
SplineSet
618 1482 m 0
 850 1482 1007 1404 1125 1224 c 1
 1017 1144 l 1
 937 1286 797 1364 639 1364 c 0
 446 1364 284 1298 284 1128 c 0
 284 931 540 895 713 829 c 0
 982 726 1158 646 1158 393 c 0
 1158 126 941 -25 615 -25 c 0
 390 -25 101 69 45 373 c 1
 168 426 l 1
 228 205 377 101 624 101 c 0
 803 101 1005 167 1005 388 c 0
 1005 584 849 633 565 731 c 0
 355 804 131 877 131 1116 c 0
 131 1369 372 1482 618 1482 c 0
616 1464 m 0
616 0 m 0
EndSplineSet
EndChar

StartChar: T
Encoding: 53 84 84
Width: 1163
VWidth: 0
Flags: W
PickledData: "(dp1
S'com.typemytype.robofont.layerData'
p2
(dp3
S'back'
p4
(dp5
S'name'
p6
S'T'
sS'lib'
p7
(dp8
sS'unicodes'
p9
(tsS'width'
p10
I1163
sS'contours'
p11
(tsS'components'
p12
(tsS'anchors'
p13
(tsss."
LayerCount: 2
Fore
SplineSet
31 1352 m 1
 31 1465 l 1
 1132 1465 l 1
 1132 1352 l 1
 658 1352 l 1
 658 0 l 1
 505 0 l 1
 505 1352 l 1
 31 1352 l 1
582 1464 m 0
582 0 m 0
582 732 m 0
EndSplineSet
EndChar

StartChar: Thorn
Encoding: 218 222 86
Width: 1261
VWidth: 0
Flags: HW
PickledData: "(dp1
S'com.typemytype.robofont.layerData'
p2
(dp3
S'back'
p4
(dp5
S'name'
p6
S'Thorn'
p7
sS'lib'
p8
(dp9
sS'unicodes'
p10
(tsS'width'
p11
I1261
sS'contours'
p12
(tsS'components'
p13
(tsS'anchors'
p14
(tsss."
LayerCount: 2
Fore
SplineSet
140 0 m 1
 140 1464 l 1
 296 1464 l 1
 296 1145 l 1
 561 1145 l 2
 1030 1145 1203 1068 1203 779 c 0
 1203 448 1007 383 502 383 c 2
 290 383 l 1
 290 0 l 1
 140 0 l 1
296 1031 m 1
 296 497 l 1
 558 497 l 1
 914 498 1055 532 1055 771 c 0
 1055 1011 914 1031 538 1031 c 2
 296 1031 l 1
EndSplineSet
EndChar

StartChar: U
Encoding: 54 85 87
Width: 1346
VWidth: 0
Flags: W
PickledData: "(dp1
S'com.typemytype.robofont.layerData'
p2
(dp3
S'back'
p4
(dp5
S'name'
p6
S'U'
sS'lib'
p7
(dp8
sS'unicodes'
p9
(tsS'width'
p10
I1346
sS'contours'
p11
(tsS'components'
p12
(tsS'anchors'
p13
(tsss."
LayerCount: 2
Fore
SplineSet
123 574 m 2
 123 1464 l 1
 283 1464 l 1
 283 598 l 2
 283 306 348 98 676 98 c 0
 1002 98 1066 306 1066 598 c 2
 1066 1464 l 1
 1223 1464 l 1
 1223 581 l 2
 1223 161 1046 -25 670 -25 c 0
 308 -25 123 152 123 574 c 2
673 1464 m 0
1211 10 m 0
EndSplineSet
EndChar

StartChar: V
Encoding: 55 86 96
Width: 1225
VWidth: 0
Flags: W
PickledData: "(dp1
S'com.typemytype.robofont.layerData'
p2
(dp3
S'back'
p4
(dp5
S'name'
p6
S'V'
sS'lib'
p7
(dp8
sS'unicodes'
p9
(tsS'width'
p10
I1225
sS'contours'
p11
(tsS'components'
p12
(tsS'anchors'
p13
(tsss."
LayerCount: 2
Fore
SplineSet
533 0 m 1
 42 1464 l 1
 197 1464 l 1
 485 598 l 2
 527 471 570 344 611 218 c 1
 653 345 698 471 741 598 c 2
 1034 1464 l 1
 1182 1464 l 1
 671 0 l 1
 533 0 l 1
EndSplineSet
EndChar

StartChar: W
Encoding: 56 87 97
Width: 1859
VWidth: 0
Flags: W
PickledData: "(dp1
S'com.typemytype.robofont.layerData'
p2
(dp3
S'back'
p4
(dp5
S'name'
p6
S'W'
sS'lib'
p7
(dp8
sS'unicodes'
p9
(tsS'width'
p10
I1859
sS'contours'
p11
(tsS'components'
p12
(tsS'anchors'
p13
(tsss."
LayerCount: 2
Fore
SplineSet
457 0 m 1
 42 1462 l 1
 194 1462 l 1
 440 576 476 394 520 234 c 1
 568 395 626 577 895 1462 c 1
 999 1462 l 1
 1110 1054 1236 626 1346 217 c 1
 1456 619 1562 1054 1676 1461 c 1
 1815 1462 l 1
 1400 0 l 1
 1274 0 l 1
 1006 942 969 1069 937 1187 c 1
 905 1080 870 974 570 0 c 1
 457 0 l 1
930 1464 m 0
EndSplineSet
EndChar

StartChar: X
Encoding: 57 88 98
Width: 1306
VWidth: 0
Flags: W
PickledData: "(dp1
S'com.typemytype.robofont.layerData'
p2
(dp3
S'back'
p4
(dp5
S'name'
p6
S'X'
sS'lib'
p7
(dp8
sS'unicodes'
p9
(tsS'width'
p10
I1306
sS'contours'
p11
(tsS'components'
p12
(tsS'anchors'
p13
(tsss."
LayerCount: 2
Fore
SplineSet
656 889 m 1
 1059 1464 l 1
 1225 1464 l 1
 736 767 l 1
 1269 0 l 1
 1096 0 l 1
 650 641 l 1
 203 0 l 1
 36 0 l 1
 570 763 l 1
 81 1464 l 1
 256 1464 l 1
 656 889 l 1
EndSplineSet
EndChar

StartChar: Y
Encoding: 58 89 99
Width: 1222
VWidth: 0
Flags: W
PickledData: "(dp1
S'com.typemytype.robofont.layerData'
p2
(dp3
S'back'
p4
(dp5
S'name'
p6
S'Y'
sS'lib'
p7
(dp8
sS'unicodes'
p9
(tsS'width'
p10
I1222
sS'contours'
p11
(tsS'components'
p12
(tsS'anchors'
p13
(tsss."
LayerCount: 2
Fore
SplineSet
538 549 m 1
 26 1464 l 1
 184 1464 l 1
 612 682 l 1
 1039 1464 l 1
 1196 1464 l 1
 684 548 l 1
 684 0 l 1
 538 0 l 1
 538 549 l 1
611 1464 m 0
EndSplineSet
EndChar

StartChar: Z
Encoding: 59 90 102
Width: 1234
VWidth: 0
Flags: W
PickledData: "(dp1
S'com.typemytype.robofont.layerData'
p2
(dp3
S'back'
p4
(dp5
S'name'
p6
S'Z'
sS'lib'
p7
(dp8
sS'unicodes'
p9
(tsS'width'
p10
I1234
sS'contours'
p11
(tsS'components'
p12
(tsS'anchors'
p13
(tsss."
LayerCount: 2
Fore
SplineSet
156 1356 m 1
 156 1464 l 1
 1184 1464 l 1
 1184 1383 l 1
 254 107 l 1
 1189 107 l 1
 1182 0 l 1
 73 0 l 1
 73 98 l 1
 993 1356 l 1
 156 1356 l 1
617 1464 m 0
EndSplineSet
EndChar

StartChar: a
Encoding: 66 97 106
Width: 1009
VWidth: 0
Flags: W
PickledData: "(dp1
S'com.typemytype.robofont.layerData'
p2
(dp3
S'back'
p4
(dp5
S'name'
p6
S'a'
sS'lib'
p7
(dp8
sS'unicodes'
p9
(tsS'width'
p10
I1009
sS'contours'
p11
(tsS'components'
p12
(tsS'anchors'
p13
(tsss."
LayerCount: 2
Fore
SplineSet
124 907 m 1
 230 993 360 1044 512 1044 c 0
 754 1044 888 927 888 673 c 2
 888 186 l 2
 888 125 894 59 898 0 c 1
 769 0 l 1
 764 40 750 110 750 110 c 1
 641 9 524 -24 387 -24 c 0
 226 -24 88 79 88 257 c 0
 88 513 302 579 645 579 c 2
 746 579 l 1
 746 637 l 2
 746 865.305 676.143 935 504 935 c 0
 390 935 265 873 193 812 c 1
 193 813 140 884 124 907 c 1
746 483 m 1
 648 483 l 2
 429 483 222 450 222 266 c 0
 222 153 291 81 415 81 c 0
 536 81 656 143 746 219 c 1
 746 483 l 1
505 1023 m 0
908 10 m 0
EndSplineSet
EndChar

StartChar: acute
Encoding: 110 180 110
Width: 494
VWidth: 0
Flags: W
PickledData: "(dp1
S'com.typemytype.robofont.layerData'
p2
(dp3
S'back'
p4
(dp5
S'name'
p6
S'acute'
p7
sS'lib'
p8
(dp9
sS'unicodes'
p10
(tsS'width'
p11
I494
sS'contours'
p12
(tsS'components'
p13
(tsS'anchors'
p14
(tsss."
LayerCount: 2
Fore
SplineSet
165 1023 m 1
 165 1023 l 1
254 1492 m 1
 449 1492 l 1
 141 1172 l 1
 49 1172 l 1
 254 1492 l 1
249 1023 m 1
 249 1023 l 1
249 1023 m 0
EndSplineSet
EndChar

StartChar: ae
Encoding: 227 230 112
Width: 1742
VWidth: 0
Flags: W
PickledData: "(dp1
S'com.typemytype.robofont.layerData'
p2
(dp3
S'back'
p4
(dp5
S'name'
p6
S'ae'
p7
sS'lib'
p8
(dp9
sS'unicodes'
p10
(tsS'width'
p11
I1742
sS'contours'
p12
(tsS'components'
p13
(tsS'anchors'
p14
(tsss."
LayerCount: 2
Fore
SplineSet
164 927 m 1
 278 1006 397 1044 549 1044 c 0
 713 1044 845 979 873 832 c 1
 934 966 1073 1044 1222 1044 c 0
 1507 1044 1618 844 1618 572 c 0
 1618 563 1617 525 1615 508 c 1
 927 494 l 1
 927 272 994 81 1222 81 c 0
 1398 81 1469 200 1500 317 c 1
 1597 277 l 1
 1548 85 1400 -22 1226 -24 c 1
 1068 -24 932 57 874 185 c 1
 791 41 624 -25 460 -25 c 0
 285 -25 115 58 115 251 c 0
 115 507 339 573 644 579 c 0
 658 579 769 586 783 586 c 1
 783 820 756 940 554 940 c 0
 393 940 321 894 234 838 c 1
 164 927 l 1
802 318 m 0
 802 360 792 462 792 487 c 1
 651 480 l 2
 432 469 257 440 257 256 c 0
 257 134 365 80 471 80 c 0
 638 80 802 158 802 318 c 0
1481 606 m 1
 1480 816 1409 941 1218 941 c 0
 1034 941 938 774 928 592 c 1
 1481 606 l 1
871 1023 m 0
EndSplineSet
EndChar

StartChar: ampersand
Encoding: 7 38 115
Width: 1443
VWidth: 0
Flags: W
PickledData: "(dp1
S'com.typemytype.robofont.layerData'
p2
(dp3
S'back'
p4
(dp5
S'name'
p6
S'ampersand'
p7
sS'lib'
p8
(dp9
sS'unicodes'
p10
(tsS'width'
p11
I1443
sS'contours'
p12
(tsS'components'
p13
(tsS'anchors'
p14
(tsss."
LayerCount: 2
Fore
SplineSet
1007 1193 m 0
 1007 1033 872 928 679 832 c 1
 1085 381 l 1
 1146 481 1170 655 1192 810 c 1
 1322 791 l 1
 1296 576 1243 406 1180 285 c 1
 1268 194 1309 139 1404 57 c 1
 1323 -21 l 1
 1239 47 1171 123 1099 195 c 1
 985.991602316 74.8649466064 796.071754649 -26 571 -26 c 0
 281 -26 96 172 96 413 c 0
 96 632 256 783 482 873 c 1
 378 989 323 1089 323 1210 c 0
 323 1391 485 1489 663 1489 c 0
 841 1489 1007 1380 1007 1193 c 0
457 1209 m 0
 457 1120 516 1015 607 917 c 1
 800 1014 880 1089 880 1194 c 0
 880 1302 775 1391 668 1391 c 0
 559 1391 457 1324 457 1209 c 0
242 419 m 0
 242 254 339 85 592 85 c 0
 732 85 906 150 1013 283 c 1
 868 445 688 635 555 785 c 1
 328 676 242 566 242 419 c 0
EndSplineSet
EndChar

StartChar: asciicircum
Encoding: 63 94 118
Width: 1053
VWidth: 0
Flags: W
PickledData: "(dp1
S'com.typemytype.robofont.layerData'
p2
(dp3
S'back'
p4
(dp5
S'name'
p6
S'asciicircum'
p7
sS'lib'
p8
(dp9
sS'unicodes'
p10
(tsS'width'
p11
I1053
sS'contours'
p12
(tsS'components'
p13
(tsS'anchors'
p14
(tsss."
LayerCount: 2
Fore
SplineSet
241 100 m 1
 103 100 l 1
 469 999 l 1
 595 999 l 1
 950 100 l 1
 798 100 l 1
 525 837 l 1
 241 100 l 1
EndSplineSet
EndChar

StartChar: asciitilde
Encoding: 95 126 119
Width: 919
VWidth: 0
Flags: W
PickledData: "(dp1
S'com.typemytype.robofont.layerData'
p2
(dp3
S'back'
p4
(dp5
S'name'
p6
S'asciitilde'
p7
sS'lib'
p8
(dp9
sS'unicodes'
p10
(tsS'width'
p11
I919
sS'contours'
p12
(tsS'components'
p13
(tsS'anchors'
p14
(tsss."
LayerCount: 2
Fore
SplineSet
305 976 m 0
 265 976 229 937 209 848 c 1
 209 848 111 888 111 889 c 0
 111 1036.34 244.724 1101 309 1101 c 0
 426 1101 551 973 617 973 c 0
 658 973 693 1015 710 1103 c 1
 710 1103 809 1069 809 1068 c 0
 809 932.215 691.47 848 618 848 c 0
 501 848 338 976 305 976 c 0
413 1023 m 1
 413 1023 l 1
EndSplineSet
EndChar

StartChar: asterisk
Encoding: 11 42 120
Width: 944
VWidth: 0
Flags: W
PickledData: "(dp1
S'com.typemytype.robofont.layerData'
p2
(dp3
S'back'
p4
(dp5
S'name'
p6
S'asterisk'
p7
sS'lib'
p8
(dp9
sS'unicodes'
p10
(tsS'width'
p11
I944
sS'contours'
p12
(tsS'components'
p13
(tsS'anchors'
p14
(tsss."
LayerCount: 2
Fore
SplineSet
522 649 m 1
 422 649 l 1
 422 916 l 1
 167 781 l 1
 120 869 l 1
 365 999 l 1
 119 1129 l 1
 166 1217 l 1
 422 1082 l 1
 422 1350 l 1
 522 1350 l 1
 522 1083 l 1
 777 1218 l 1
 824 1130 l 1
 579 1000 l 1
 825 870 l 1
 778 782 l 1
 522 917 l 1
 522 649 l 1
497 1023 m 1
 497 1023 l 1
EndSplineSet
EndChar

StartChar: at
Encoding: 33 64 121
Width: 1009
VWidth: 0
Flags: W
PickledData: "(dp1
S'com.typemytype.robofont.layerData'
p2
(dp3
S'back'
p4
(dp5
S'name'
p6
S'at'
p7
sS'lib'
p8
(dp9
sS'unicodes'
p10
(tsS'width'
p11
I1009
sS'contours'
p12
(tsS'components'
p13
(tsS'anchors'
p14
(tsss."
LayerCount: 2
Fore
SplineSet
124 907 m 1
 230 993 360 1044 512 1044 c 0
 754 1044 888 927 888 673 c 2
 888 186 l 2
 888 125 894 59 898 0 c 1
 769 0 l 1
 764 40 750 110 750 110 c 1
 641 9 524 -24 387 -24 c 0
 226 -24 88 79 88 257 c 0
 88 513 302 579 645 579 c 2
 746 579 l 1
 746 637 l 2
 746 865.305 676.143 935 504 935 c 0
 390 935 265 873 193 812 c 1
 193 813 140 884 124 907 c 1
746 483 m 1
 648 483 l 2
 429 483 222 450 222 266 c 0
 222 153 291 81 415 81 c 0
 536 81 656 143 746 219 c 1
 746 483 l 1
505 1023 m 0
908 10 m 0
EndSplineSet
EndChar

StartChar: b
Encoding: 67 98 123
Width: 1078
VWidth: 0
Flags: W
PickledData: "(dp1
S'com.typemytype.robofont.layerData'
p2
(dp3
S'back'
p4
(dp5
S'name'
p6
S'b'
sS'lib'
p7
(dp8
sS'unicodes'
p9
(tsS'width'
p10
I1078
sS'contours'
p11
(tsS'components'
p12
(tsS'anchors'
p13
(tsss."
LayerCount: 2
Fore
SplineSet
125 0 m 1
 125 1493 l 1
 268 1493 l 1
 268 1102 l 1
 268 865 l 1
 327 985 449 1044 589 1044 c 0
 837 1044 982 840 982 502 c 0
 982 191 843 -24 580 -24 c 0
 436 -24 308 39 257 161 c 1
 238 0 l 1
 125 0 l 1
570 940 m 0
 320 940 262 712 262 488 c 0
 262 131 437 81 563 81 c 0
 744 81 837 262 837 499 c 0
 837 784 746 940 570 940 c 0
EndSplineSet
EndChar

StartChar: backslash
Encoding: 61 92 124
Width: 632
VWidth: 0
Flags: W
PickledData: "(dp1
S'com.typemytype.robofont.layerData'
p2
(dp3
S'back'
p4
(dp5
S'name'
p6
S'backslash'
p7
sS'lib'
p8
(dp9
sS'unicodes'
p10
(tsS'width'
p11
I632
sS'contours'
p12
(tsS'components'
p13
(tsS'anchors'
p14
(tsss."
LayerCount: 2
Fore
SplineSet
588 -5 m 1
 443 -5 l 1
 46 1464 l 1
 191 1464 l 1
 588 -5 l 1
EndSplineSet
EndChar

StartChar: bar
Encoding: 93 124 125
Width: 416
VWidth: 0
Flags: W
PickledData: "(dp1
S'com.typemytype.robofont.layerData'
p2
(dp3
S'back'
p4
(dp5
S'name'
p6
S'bar'
p7
sS'lib'
p8
(dp9
sS'unicodes'
p10
(tsS'width'
p11
I416
sS'contours'
p12
(tsS'components'
p13
(tsS'anchors'
p14
(tsss."
LayerCount: 2
Fore
SplineSet
281 -197 m 1
 135 -197 l 1
 135 1502 l 1
 281 1502 l 1
 281 -197 l 1
207 0 m 1
 207 0 l 1
EndSplineSet
EndChar

StartChar: braceleft
Encoding: 92 123 126
Width: 626
VWidth: 0
Flags: W
PickledData: "(dp1
S'com.typemytype.robofont.layerData'
p2
(dp3
S'back'
p4
(dp5
S'name'
p6
S'braceleft'
p7
sS'lib'
p8
(dp9
sS'unicodes'
p10
(tsS'width'
p11
I626
sS'contours'
p12
(tsS'components'
p13
(tsS'anchors'
p14
(tsss."
LayerCount: 2
Fore
SplineSet
163 446 m 0
 163 575 133 663 44 685 c 1
 44 780 l 1
 133 802 163 890 163 1019 c 0
 163 1318 259 1468 572 1491 c 1
 574 1386 l 1
 318 1375 314 1221 314 1019 c 0
 314 878 271 786 195 732 c 1
 271 678 314 587 314 446 c 0
 314 245 318 91 574 80 c 1
 572 -25 l 1
 259 -2 163 147 163 446 c 0
EndSplineSet
EndChar

StartChar: braceright
Encoding: 94 125 127
Width: 621
VWidth: 0
Flags: W
PickledData: "(dp1
S'com.typemytype.robofont.layerData'
p2
(dp3
S'back'
p4
(dp5
S'name'
p6
S'braceright'
p7
sS'lib'
p8
(dp9
sS'unicodes'
p10
(tsS'width'
p11
I621
sS'contours'
p12
(tsS'components'
p13
(tsS'anchors'
p14
(tsss."
LayerCount: 2
Fore
SplineSet
460 446 m 0
 460 147 364 -85 51 -108 c 1
 51 -3 l 1
 307 8 309 245 309 446 c 0
 309 587 352 678 428 732 c 1
 352 786 309 878 309 1019 c 0
 309 1221 307 1482 51 1493 c 1
 51 1598 l 1
 364 1575 460 1318 460 1019 c 0
 460 890 490 802 579 780 c 1
 579 685 l 1
 490 663 460 575 460 446 c 0
EndSplineSet
EndChar

StartChar: bracketleft
Encoding: 60 91 128
Width: 708
VWidth: 0
Flags: W
PickledData: "(dp1
S'com.typemytype.robofont.layerData'
p2
(dp3
S'back'
p4
(dp5
S'name'
p6
S'bracketleft'
p7
sS'lib'
p8
(dp9
sS'unicodes'
p10
(tsS'width'
p11
I708
sS'contours'
p12
(tsS'components'
p13
(tsS'anchors'
p14
(tsss."
LayerCount: 2
Fore
SplineSet
132 -52 m 1
 132 1480 l 1
 590 1480 l 1
 590 1374 l 1
 277 1374 l 1
 277 55 l 1
 590 55 l 1
 590 -52 l 1
 132 -52 l 1
EndSplineSet
EndChar

StartChar: bracketright
Encoding: 62 93 129
Width: 707
VWidth: 0
Flags: W
PickledData: "(dp1
S'com.typemytype.robofont.layerData'
p2
(dp3
S'back'
p4
(dp5
S'name'
p6
S'bracketright'
p7
sS'lib'
p8
(dp9
sS'unicodes'
p10
(tsS'width'
p11
I707
sS'contours'
p12
(tsS'components'
p13
(tsS'anchors'
p14
(tsss."
LayerCount: 2
Fore
SplineSet
119 1374 m 1
 119 1480 l 1
 576 1480 l 1
 576 -52 l 1
 119 -52 l 1
 119 55 l 1
 431 55 l 1
 431 1374 l 1
 119 1374 l 1
EndSplineSet
EndChar

StartChar: breve
Encoding: 97 728 130
Width: 805
VWidth: 0
Flags: W
PickledData: "(dp1
S'com.typemytype.robofont.layerData'
p2
(dp3
S'back'
p4
(dp5
S'name'
p6
S'breve'
p7
sS'lib'
p8
(dp9
sS'unicodes'
p10
(tsS'width'
p11
I805
sS'contours'
p12
(tsS'components'
p13
(tsS'anchors'
p14
(tsss."
LayerCount: 2
Fore
SplineSet
402 1183 m 0
 265 1183 130 1268 126 1438 c 1
 252 1438 l 1
 255 1345 328 1299 402 1299 c 0
 476 1299 549 1345 552 1438 c 1
 678 1438 l 1
 674 1268 539 1183 402 1183 c 0
402 1023 m 0
EndSplineSet
EndChar

StartChar: brokenbar
Encoding: 232 166 131
Width: 416
VWidth: 0
Flags: W
PickledData: "(dp1
S'com.typemytype.robofont.layerData'
p2
(dp3
S'back'
p4
(dp5
S'name'
p6
S'brokenbar'
p7
sS'lib'
p8
(dp9
sS'unicodes'
p10
(tsS'width'
p11
I416
sS'contours'
p12
((dp13
S'points'
p14
((dp15
S'segmentType'
p16
S'line'
p17
sS'x'
F281
sS'smooth'
p18
I00
sS'y'
F-197
s(dp19
g16
S'line'
p20
sS'x'
F135
sg18
I00
sS'y'
F-197
s(dp21
g16
S'line'
p22
sS'x'
F135
sg18
I00
sS'y'
F1502
s(dp23
g16
S'line'
p24
sS'x'
F281
sg18
I00
sS'y'
F1502
stp25
stp26
sS'components'
p27
(tsS'anchors'
p28
(tsss."
LayerCount: 2
Fore
SplineSet
135 -198 m 1
 135 433 l 1
 281 433 l 1
 281 -198 l 1
 135 -198 l 1
281 883 m 1
 135 883 l 1
 135 1504 l 1
 281 1504 l 1
 281 883 l 1
EndSplineSet
EndChar

StartChar: c
Encoding: 68 99 132
Width: 993
VWidth: 0
Flags: W
PickledData: "(dp1
S'com.typemytype.robofont.layerData'
p2
(dp3
S'back'
p4
(dp5
S'name'
p6
S'c'
sS'lib'
p7
(dp8
sS'unicodes'
p9
(tsS'width'
p10
I993
sS'contours'
p11
(tsS'components'
p12
(tsS'anchors'
p13
(tsss."
LayerCount: 2
Fore
SplineSet
96 509 m 0
 96 817 242 1044 538 1044 c 0
 692 1044 855 975 911 733 c 1
 792 701 l 1
 750 862 674 940 544 940 c 0
 332 940 239 767 239 512 c 0
 239 260 330 81 538 81 c 0
 671 81 753 167 799 323 c 1
 908 289 l 1
 858 64 694 -24 535 -24 c 0
 243 -24 96 198 96 509 c 0
497 1023 m 0
497 0 m 0
EndSplineSet
EndChar

StartChar: caron
Encoding: 234 711 134
Width: 835
VWidth: 0
Flags: W
PickledData: "(dp1
S'com.typemytype.robofont.layerData'
p2
(dp3
S'back'
p4
(dp5
S'name'
p6
S'caron'
p7
sS'lib'
p8
(dp9
sS'unicodes'
p10
(tsS'width'
p11
I835
sS'contours'
p12
(tsS'components'
p13
(tsS'anchors'
p14
(tsss."
LayerCount: 2
Fore
SplineSet
515 1172 m 1
 320 1172 l 1
 115 1492 l 1
 207 1492 l 1
 417 1274 l 1
 628 1492 l 1
 720 1492 l 1
 515 1172 l 1
417.5 1023 m 0
EndSplineSet
EndChar

StartChar: cedilla
Encoding: 113 184 138
Width: 435
VWidth: 0
Flags: W
PickledData: "(dp1
S'com.typemytype.robofont.layerData'
p2
(dp3
S'back'
p4
(dp5
S'name'
p6
S'cedilla'
p7
sS'lib'
p8
(dp9
sS'unicodes'
p10
(tsS'width'
p11
I435
sS'contours'
p12
(tsS'components'
p13
(tsS'anchors'
p14
(tsss."
LayerCount: 2
Fore
SplineSet
164 -174 m 1
 164 -10 l 1
 337 -10 l 1
 337 -209 l 2
 337 -301 313 -390 214 -390 c 0
 200 -390 186 -387 172 -381 c 1
 172 -316 l 1
 187 -320 199 -324 209 -324 c 0
 238 -324 249 -294 249 -174 c 1
 164 -174 l 1
249 0 m 0
EndSplineSet
EndChar

StartChar: cent
Encoding: 236 162 139
Width: 993
VWidth: 0
Flags: W
PickledData: "(dp1
S'com.typemytype.robofont.layerData'
p2
(dp3
S'back'
p4
(dp5
S'name'
p6
S'cent'
p7
sS'lib'
p8
(dp9
sS'unicodes'
p10
(tsS'width'
p11
I993
sS'contours'
p12
(tsS'components'
p13
(tsS'anchors'
p14
(tsss."
LayerCount: 2
Fore
SplineSet
484 -208 m 1
 577 -208 l 1
 577 -21.7188 l 1
 721.264 -6.61394 860.609 84.7386 906 289 c 1
 805 323 l 1
 763.895 183.602 687.658 100.097 577 83.9027 c 1
 577 937.982 l 1
 687.226 924.812 759.897 847.062 798 701 c 1
 909 733 l 1
 857.954 953.592 718.001 1030.44 577 1042.31 c 1
 577 1253 l 1
 484 1253 l 1
 484 1041.55 l 1
 222.894 1016.28 94 798.395 94 509 c 0
 94 215.908 224.558 1.86198 484 -21.8171 c 1
 484 -208 l 1
484 935.261 m 1
 484 85.0518 l 1
 312.751 112.93 237 282.081 237 512 c 0
 237 742.425 312.939 905.894 484 935.261 c 1
EndSplineSet
EndChar

StartChar: circumflex
Encoding: 237 710 140
Width: 838
VWidth: 0
Flags: W
PickledData: "(dp1
S'com.typemytype.robofont.layerData'
p2
(dp3
S'back'
p4
(dp5
S'name'
p6
S'circumflex'
p7
sS'lib'
p8
(dp9
sS'unicodes'
p10
(tsS'width'
p11
I838
sS'contours'
p12
(tsS'components'
p13
(tsS'anchors'
p14
(tsss."
LayerCount: 2
Fore
SplineSet
321 1492 m 1
 516 1492 l 1
 721 1172 l 1
 629 1172 l 1
 418 1390 l 1
 208 1172 l 1
 116 1172 l 1
 321 1492 l 1
418.5 1023 m 0
EndSplineSet
EndChar

StartChar: colon
Encoding: 27 58 141
Width: 482
VWidth: 0
Flags: W
PickledData: "(dp1
S'com.typemytype.robofont.layerData'
p2
(dp3
S'back'
p4
(dp5
S'name'
p6
S'colon'
p7
sS'lib'
p8
(dp9
sS'unicodes'
p10
(tsS'width'
p11
I482
sS'contours'
p12
(tsS'components'
p13
(tsS'anchors'
p14
(tsss."
LayerCount: 2
Fore
SplineSet
332 387 m 1
 332 171 l 1
 159 171 l 1
 159 387 l 1
 332 387 l 1
159 1024 m 1
 332 1024 l 1
 332 808 l 1
 159 808 l 1
 159 1024 l 1
EndSplineSet
EndChar

StartChar: comma
Encoding: 13 44 142
Width: 445
VWidth: 0
Flags: W
PickledData: "(dp1
S'com.typemytype.robofont.layerData'
p2
(dp3
S'back'
p4
(dp5
S'name'
p6
S'comma'
p7
sS'lib'
p8
(dp9
sS'unicodes'
p10
(tsS'width'
p11
I445
sS'contours'
p12
(tsS'components'
p13
(tsS'anchors'
p14
(tsss."
LayerCount: 2
Fore
SplineSet
134 219 m 1
 325 219 l 1
 324 134 l 1
 319 -24 295 -163 163 -254 c 1
 114 -192 l 1
 139 -172 191 -105 194 16 c 1
 134 29 l 1
 134 219 l 1
EndSplineSet
EndChar

StartChar: commaaccent
Encoding: 238 806 143
Width: 444
VWidth: 0
Flags: W
PickledData: "(dp1
S'com.typemytype.robofont.layerData'
p2
(dp3
S'back'
p4
(dp5
S'name'
p6
S'commaaccent'
p7
sS'lib'
p8
(dp9
sS'unicodes'
p10
(tsS'width'
p11
I444
sS'contours'
p12
(tsS'components'
p13
(tsS'anchors'
p14
(tsss."
LayerCount: 2
Fore
SplineSet
208 0 m 1
 208 0 l 1
134 -86 m 1
 325 -86 l 1
 324 -171 l 1
 319 -329 295 -468 163 -559 c 1
 114 -497 l 1
 139 -477 191 -410 194 -289 c 1
 134 -276 l 1
 134 -86 l 1
219.5 0 m 1
 219.5 0 l 1
219.5 0 m 0
EndSplineSet
EndChar

StartChar: copyright
Encoding: 239 169 144
Width: 1702
VWidth: 0
Flags: W
PickledData: "(dp1
S'com.typemytype.robofont.layerData'
p2
(dp3
S'back'
p4
(dp5
S'name'
p6
S'copyright'
p7
sS'lib'
p8
(dp9
sS'unicodes'
p10
(tsS'width'
p11
I1702
sS'contours'
p12
(tsS'components'
p13
(tsS'anchors'
p14
(tsss."
LayerCount: 2
Fore
SplineSet
856 1247 m 0
 992 1247 1091 1172 1129 1015 c 1
 1058 997 l 1
 1034 1102 975 1177 853 1177 c 0
 670 1177 598 1035 598 799 c 0
 598 544 662 415 854 415 c 0
 973 415 1033 481 1066 584 c 1
 1132 561 l 1
 1088 413 986 344 850 344 c 0
 636 344 517 475 517 799 c 0
 517 1115 653 1247 856 1247 c 0
1579 774 m 0
 1579 375 1251 47 850 47 c 0
 451 47 123 375 123 774 c 0
 123 1175 451 1503 850 1503 c 0
 1251 1503 1579 1175 1579 774 c 0
849 100 m 0
 1220 100 1523 403 1523 773 c 0
 1523 1144 1220 1447 849 1447 c 0
 479 1447 176 1144 176 773 c 0
 176 403 479 100 849 100 c 0
852 315 m 1
 852 315 l 1
784 0 m 1
 784 0 l 1
859 1436 m 1
 859 1436 l 1
EndSplineSet
EndChar

StartChar: currency
Encoding: 99 164 145
Width: 1068
VWidth: 0
Flags: W
PickledData: "(dp1
S'com.typemytype.robofont.layerData'
p2
(dp3
S'back'
p4
(dp5
S'name'
p6
S'currency'
p7
sS'lib'
p8
(dp9
sS'unicodes'
p10
(tsS'width'
p11
I1068
sS'contours'
p12
(tsS'components'
p13
(tsS'anchors'
p14
(tsss."
LayerCount: 2
Fore
SplineSet
769 515 m 0
 769 375 681 234 536 234 c 0
 385 234 303 373 303 512 c 0
 303 651 386 790 535 790 c 0
 684 790 769 653 769 515 c 0
183 513 m 0
 183 328 301 141 535 141 c 0
 767 141 883 325 883 510 c 0
 883 695 767 880 534 880 c 0
 299 880 183 697 183 513 c 0
534 1023 m 0
534 1023 m 0
EndSplineSet
EndChar

StartChar: d
Encoding: 69 100 146
Width: 1062
VWidth: 0
Flags: W
PickledData: "(dp1
S'com.typemytype.robofont.layerData'
p2
(dp3
S'back'
p4
(dp5
S'name'
p6
S'd'
sS'lib'
p7
(dp8
sS'unicodes'
p9
(tsS'width'
p10
I1062
sS'contours'
p11
(tsS'components'
p12
(tsS'anchors'
p13
(tsss."
LayerCount: 2
Fore
SplineSet
96 500 m 0
 96 832 230 1044 484 1044 c 0
 629 1044 748 986 794 863 c 1
 794 1474 l 1
 937 1474 l 1
 937 0 l 1
 823 0 l 1
 804 172 l 1
 752 51 629 -24 488 -24 c 0
 239 -24 96 188 96 500 c 0
506 81 m 0
 636 81 800 127 800 499 c 0
 800 748 736 940 504 940 c 0
 332 940 242 765 242 499 c 0
 242 262 336 81 506 81 c 0
531 512 m 0
EndSplineSet
EndChar

StartChar: dcroat
Encoding: 241 273 148
Width: 1024
VWidth: 0
Flags: W
PickledData: "(dp1
S'com.typemytype.robofont.layerData'
p2
(dp3
S'back'
p4
(dp5
S'name'
p6
S'dcroat'
p7
sS'lib'
p8
(dp9
sS'unicodes'
p10
(tsS'width'
p11
I1024
sS'contours'
p12
(tsS'components'
p13
(tsS'anchors'
p14
(tsss."
LayerCount: 2
Fore
SplineSet
504.5 1196.2 m 1
 504.5 1282.2 l 1
 1024 1282.2 l 1
 1024 1196.2 l 1
 504.5 1196.2 l 1
96 500 m 0
 96 832 230 1044 484 1044 c 0
 629 1044 748 986 794 863 c 1
 794 1474 l 1
 937 1474 l 1
 937 0 l 1
 823 0 l 1
 804 172 l 1
 752 51 629 -24 488 -24 c 0
 239 -24 96 188 96 500 c 0
506 81 m 0
 636 81 800 127 800 499 c 0
 800 748 736 940 504 940 c 0
 332 940 242 765 242 499 c 0
 242 262 336 81 506 81 c 0
EndSplineSet
EndChar

StartChar: degree
Encoding: 106 176 149
Width: 483
VWidth: 0
Flags: W
PickledData: "(dp1
S'com.typemytype.robofont.layerData'
p2
(dp3
S'back'
p4
(dp5
S'name'
p6
S'degree'
p7
sS'lib'
p8
(dp9
sS'unicodes'
p10
(tsS'width'
p11
I483
sS'contours'
p12
(tsS'components'
p13
(tsS'anchors'
p14
(tsss."
LayerCount: 2
Fore
SplineSet
483 1269 m 0
 483 1393 392 1504 240 1504 c 0
 93 1504 7.1054273576e-15 1394 0 1267 c 0
 0 1143 92 1032 240 1032 c 0
 391 1032 483 1143 483 1269 c 0
379 1268 m 0
 379 1194 332 1117 240 1117 c 0
 146 1117 98 1194 98 1268 c 0
 98 1341 147 1418 240 1418 c 0
 328 1418 379 1341 379 1268 c 0
239 1023 m 0
EndSplineSet
EndChar

StartChar: dieresis
Encoding: 101 168 150
Width: 860
VWidth: 0
Flags: W
PickledData: "(dp1
S'com.typemytype.robofont.layerData'
p2
(dp3
S'back'
p4
(dp5
S'name'
p6
S'dieresis'
p7
sS'lib'
p8
(dp9
sS'unicodes'
p10
(tsS'width'
p11
I860
sS'contours'
p12
(tsS'components'
p13
(tsS'anchors'
p14
(tsss."
LayerCount: 2
Fore
SplineSet
436 1044 m 1
 436 1044 l 1
135 1375 m 1
 310 1377 l 1
 310 1190 l 1
 135 1190 l 1
 135 1375 l 1
551 1377 m 1
 725 1377 l 1
 725 1190 l 1
 551 1190 l 1
 551 1377 l 1
430 1023 m 1
 430 1023 l 1
430 1023 m 0
EndSplineSet
EndChar

StartChar: divide
Encoding: 169 247 151
Width: 1024
VWidth: 0
Flags: W
PickledData: "(dp1
S'com.typemytype.robofont.layerData'
p2
(dp3
S'back'
p4
(dp5
S'name'
p6
S'divide'
p7
sS'lib'
p8
(dp9
sS'unicodes'
p10
(tsS'width'
p11
I1024
sS'contours'
p12
(tsS'components'
p13
(tsS'anchors'
p14
(tsss."
LayerCount: 2
Fore
SplineSet
565 385 m 1
 565 171 l 1
 392 171 l 1
 392 385 l 1
 565 385 l 1
392 1024 m 1
 565 1024 l 1
 565 808 l 1
 392 808 l 1
 392 1024 l 1
803 563 m 1
 803 649 l 1
 135 649 l 1
 135 563 l 1
 803 563 l 1
EndSplineSet
EndChar

StartChar: dollar
Encoding: 5 36 152
Width: 1323
VWidth: 0
Flags: W
PickledData: "(dp1
S'com.typemytype.robofont.layerData'
p2
(dp3
S'back'
p4
(dp5
S'name'
p6
S'dollar'
p7
sS'lib'
p8
(dp9
sS'unicodes'
p10
(tsS'width'
p11
I1323
sS'contours'
p12
(tsS'components'
p13
(tsS'anchors'
p14
(tsss."
LayerCount: 2
Fore
SplineSet
676 1482 m 0
 908 1482 1060 1404 1178 1224 c 1
 1074 1148 l 1
 1016 1253 900 1364 692 1364 c 0
 499 1364 337 1298 337 1128 c 0
 337 931 593 895 766 829 c 0
 1035 726 1211 646 1211 393 c 0
 1211 126 1001 -25 675 -25 c 0
 450 -25 154 69 98 373 c 1
 221 426 l 1
 281 205 437 101 684 101 c 0
 863 101 1058 167 1058 388 c 0
 1058 584 902 633 618 731 c 0
 408 804 184 877 184 1116 c 0
 184 1369 430 1482 676 1482 c 0
642 -201 m 1
 642 1674 l 1
 731 1674 l 1
 731 -201 l 1
 642 -201 l 1
EndSplineSet
EndChar

StartChar: dotaccent
Encoding: 175 729 153
Width: 539
VWidth: 0
Flags: HW
PickledData: "(dp1
S'com.typemytype.robofont.layerData'
p2
(dp3
S'back'
p4
(dp5
S'name'
p6
S'dotaccent'
p7
sS'lib'
p8
(dp9
sS'unicodes'
p10
(tsS'width'
p11
I539
sS'contours'
p12
(tsS'components'
p13
(tsS'anchors'
p14
(tsss."
LayerCount: 2
Fore
SplineSet
270 1268 m 4
 188.720337057 1268 147.920088237 1330.4130628 147.920088237 1392.7444341 c 4
 147.920088237 1454.91284951 188.507283842 1517 270 1517 c 4
 351.496586763 1517 392.079518213 1454.91921477 392.079518213 1392.75399473 c 4
 392.079518213 1330.41944507 351.275200884 1268 270 1268 c 4
EndSplineSet
EndChar

StartChar: dotlessi
Encoding: 114 305 154
Width: 411
VWidth: 0
Flags: W
PickledData: "(dp1
S'com.typemytype.robofont.layerData'
p2
(dp3
S'back'
p4
(dp5
S'name'
p6
S'dotlessi'
p7
sS'lib'
p8
(dp9
sS'unicodes'
p10
(tsS'width'
p11
I411
sS'contours'
p12
(tsS'components'
p13
(tsS'anchors'
p14
(tsss."
LayerCount: 2
Fore
SplineSet
140 0 m 1
 140 1023 l 1
 282 1023 l 1
 282 0 l 1
 140 0 l 1
206 1023 m 0
370 10 m 0
EndSplineSet
EndChar

StartChar: e
Encoding: 70 101 155
Width: 1037
VWidth: 0
Flags: W
PickledData: "(dp1
S'com.typemytype.robofont.layerData'
p2
(dp3
S'back'
p4
(dp5
S'name'
p6
S'e'
sS'lib'
p7
(dp8
sS'unicodes'
p9
(tsS'width'
p10
I1037
sS'contours'
p11
(tsS'components'
p12
(tsS'anchors'
p13
(tsss."
LayerCount: 2
Fore
SplineSet
96 512 m 0
 96 823 253 1044 535 1044 c 0
 820 1044 942 830 942 558 c 0
 942 549 941 515 939 498 c 1
 240 498 l 1
 240 277 323 81 543 81 c 0
 702.006 81 775.81 200.26 806 318 c 1
 921 277 l 1
 872.432 82.728 713.012 -24 542 -24 c 0
 226 -24 96 231 96 512 c 0
241 592 m 1
 805 592 l 1
 804 802 722 941 531 941 c 0
 347 941 251 774 241 592 c 1
519 1023 m 0
519 0 m 0
933 10 m 0
EndSplineSet
EndChar

StartChar: eight
Encoding: 25 56 161
Width: 1236
VWidth: 0
Flags: W
PickledData: "(dp1
S'com.typemytype.robofont.layerData'
p2
(dp3
S'back'
p4
(dp5
S'name'
p6
S'eight'
p7
sS'lib'
p8
(dp9
sS'unicodes'
p10
(tsS'width'
p11
I1236
sS'contours'
p12
(tsS'components'
p13
(tsS'anchors'
p14
(tsss."
LayerCount: 2
Fore
SplineSet
530.482 703.271 m 1
 376.294 610.064 296.44 476.682 296.44 357 c 0
 296.44 208.405 410.083 83 615.515 83 c 0
 772.385 83 946.44 182.394 946.44 368 c 0
 946.44 606.451 724.9 671.218 530.482 703.271 c 1
138 340.973 m 0
 138 492.418 226.422 630.034 430.311 748.531 c 1
 316.611 801.564 149.44 907.049 149.44 1083 c 0
 149.44 1361.8 387.97 1492 626.242 1492 c 0
 870.792 1492 1098.44 1364.88 1098.44 1088 c 0
 1098.44 891.679 888.604 773.458 799.603 740.927 c 1
 1055.28 618.345 1093.81 505.949 1093.81 364.823 c 0
 1093.81 161.034 916.971 -24.0039 601.34 -24.0039 c 0
 313.751 -24.0039 138 145.047 138 340.973 c 0
693.647 789.827 m 1
 788.018 837.045 931.44 923.072 931.44 1092 c 0
 931.44 1286.35 790.219 1379 626.242 1379 c 0
 473.349 1379 307.258 1297.92 307.258 1096.65 c 0
 307.258 893.5 481.519 814.108 693.647 789.827 c 1
EndSplineSet
EndChar

StartChar: emdash
Encoding: 244 8212 163
Width: 2048
VWidth: 0
Flags: W
PickledData: "(dp1
S'com.typemytype.robofont.layerData'
p2
(dp3
S'back'
p4
(dp5
S'name'
p6
S'emdash'
p7
sS'lib'
p8
(dp9
sS'unicodes'
p10
(tsS'width'
p11
I2048
sS'contours'
p12
(tsS'components'
p13
(tsS'anchors'
p14
(tsss."
LayerCount: 2
Fore
SplineSet
135 334 m 1
 135 420 l 1
 1913 420 l 1
 1913 334 l 1
 135 334 l 1
EndSplineSet
EndChar

StartChar: endash
Encoding: 245 8211 164
Width: 1024
VWidth: 0
Flags: W
PickledData: "(dp1
S'com.typemytype.robofont.layerData'
p2
(dp3
S'back'
p4
(dp5
S'name'
p6
S'endash'
p7
sS'lib'
p8
(dp9
sS'unicodes'
p10
(tsS'width'
p11
I1024
sS'contours'
p12
(tsS'components'
p13
(tsS'anchors'
p14
(tsss."
LayerCount: 2
Fore
SplineSet
135 334 m 5
 135 420 l 5
 889 420 l 5
 889 334 l 5
 135 334 l 5
EndSplineSet
EndChar

StartChar: equal
Encoding: 30 61 166
Width: 820
VWidth: 0
Flags: W
PickledData: "(dp1
S'com.typemytype.robofont.layerData'
p2
(dp3
S'back'
p4
(dp5
S'name'
p6
S'equal'
p7
sS'lib'
p8
(dp9
sS'unicodes'
p10
(tsS'width'
p11
I820
sS'contours'
p12
(tsS'components'
p13
(tsS'anchors'
p14
(tsss."
LayerCount: 2
Fore
SplineSet
135 550 m 1
 135 650 l 1
 685 650 l 1
 685 550 l 1
 135 550 l 1
135 300 m 1
 135 400 l 1
 685 400 l 1
 685 300 l 1
 135 300 l 1
EndSplineSet
EndChar

StartChar: eth
Encoding: 247 240 167
Width: 1074
VWidth: 0
Flags: W
PickledData: "(dp1
S'com.typemytype.robofont.layerData'
p2
(dp3
S'back'
p4
(dp5
S'name'
p6
S'eth'
p7
sS'lib'
p8
(dp9
sS'unicodes'
p10
(tsS'width'
p11
I1074
sS'contours'
p12
(tsS'components'
p13
(tsS'anchors'
p14
(tsss."
LayerCount: 2
Fore
SplineSet
469 1002 m 1
 619 1099 l 1
 525 1170 405 1199 274 1199 c 1
 295 1292 l 1
 462 1292 606 1252 718 1163 c 1
 894 1278 l 1
 947 1203 l 1
 785 1098 l 1
 897 970 962 775 962 498 c 0
 962 218 819 -25 519 -25 c 0
 257 -25 116 196 116 410 c 0
 116 674 302 810 520 810 c 0
 619 810 728 775 820 704 c 1
 801 850 754 958 688 1035 c 1
 522 927 l 1
 469 1002 l 1
826 580 m 1
 771 645 625 698 531 698 c 0
 377 698 255 620 255 407 c 0
 255 184 390 84 528 84 c 0
 739 84 833 257 833 506 c 0
 833 530 832 554 826 580 c 1
EndSplineSet
EndChar

StartChar: exclam
Encoding: 2 33 168
Width: 428
VWidth: 0
Flags: W
PickledData: "(dp1
S'com.typemytype.robofont.layerData'
p2
(dp3
S'back'
p4
(dp5
S'name'
p6
S'exclam'
p7
sS'lib'
p8
(dp9
sS'unicodes'
p10
(tsS'width'
p11
I428
sS'contours'
p12
(tsS'components'
p13
(tsS'anchors'
p14
(tsss."
LayerCount: 2
Fore
SplineSet
173 304 m 1
 121 1465 l 1
 306 1465 l 1
 249 305 l 1
 173 304 l 1
138 197 m 1
 302 197 l 1
 302 0 l 1
 138 0 l 1
 138 197 l 1
EndSplineSet
EndChar

StartChar: exclamdown
Encoding: 248 161 169
Width: 426
VWidth: 0
Flags: W
PickledData: "(dp1
S'com.typemytype.robofont.layerData'
p2
(dp3
S'back'
p4
(dp5
S'name'
p6
S'exclamdown'
p7
sS'lib'
p8
(dp9
sS'unicodes'
p10
(tsS'width'
p11
I426
sS'contours'
p12
(tsS'components'
p13
(tsS'anchors'
p14
(tsss."
LayerCount: 2
Fore
SplineSet
174 1161 m 1
 250 1160 l 1
 307 0 l 1
 122 0 l 1
 174 1161 l 1
139 1268 m 1
 139 1465 l 1
 303 1465 l 1
 303 1268 l 1
 139 1268 l 1
EndSplineSet
EndChar

StartChar: f
Encoding: 71 102 170
Width: 659
VWidth: 0
Flags: W
PickledData: "(dp1
S'com.typemytype.robofont.layerData'
p2
(dp3
S'back'
p4
(dp5
S'name'
p6
S'f'
sS'lib'
p7
(dp8
sS'unicodes'
p9
(tsS'width'
p10
I659
sS'contours'
p11
(tsS'components'
p12
(tsS'anchors'
p13
(tsss."
LayerCount: 2
Fore
SplineSet
468 1365 m 0
 368 1365 367 1275 367 1137 c 2
 367 1023 l 1
 567 1023 l 1
 567 917 l 1
 367 917 l 1
 367 -1 l 1
 225 -1 l 1
 225 917 l 1
 52 917 l 1
 52 1023 l 1
 225 1023 l 1
 225 1140 l 2
 225 1361 284 1471 459 1471 c 0
 517 1471 571 1454 615 1430 c 1
 581 1338 l 1
 541 1353 500 1365 468 1365 c 0
EndSplineSet
EndChar

StartChar: five
Encoding: 22 53 171
Width: 1163
VWidth: 0
Flags: W
PickledData: "(dp1
S'com.typemytype.robofont.layerData'
p2
(dp3
S'back'
p4
(dp5
S'name'
p6
S'five'
p7
sS'lib'
p8
(dp9
sS'unicodes'
p10
(tsS'width'
p11
I1163
sS'contours'
p12
(tsS'components'
p13
(tsS'anchors'
p14
(tsss."
LayerCount: 2
Fore
SplineSet
593.784 952 m 0
 916.488 952 1058.21 726.577 1058.21 485.326 c 0
 1058.21 206.602 878.145 -22.0068 569.05 -22.0068 c 0
 351.771 -22.0068 175.91 77.9033 85 309.158 c 1
 209.128 359.186 l 1
 284.631 195.656 413.01 95 560.203 95 c 0
 788.426 95 909.062 288.874 909.062 477 c 0
 909.062 656.062 803.241 832 587.858 832 c 0
 486.834 832 372.175 792.202 261.942 708.672 c 1
 171.282 768.47 l 1
 266.69 1488.1 l 1
 968.062 1488.1 l 1
 968.062 1361.1 l 1
 397.627 1361.1 l 1
 329.306 879.966 l 1
 334.25 882.276 l 1
 424.425 931.921 513.576 952 593.784 952 c 0
EndSplineSet
EndChar

StartChar: four
Encoding: 21 52 172
Width: 1287
VWidth: 0
Flags: W
PickledData: "(dp1
S'com.typemytype.robofont.layerData'
p2
(dp3
S'back'
p4
(dp5
S'name'
p6
S'four'
p7
sS'lib'
p8
(dp9
sS'unicodes'
p10
(tsS'width'
p11
I1287
sS'contours'
p12
(tsS'components'
p13
(tsS'anchors'
p14
(tsss."
LayerCount: 2
Fore
SplineSet
151 464 m 1
 693 1464 l 1
 897 1464 l 1
 897 468 l 1
 1152 468 l 1
 1152 358 l 1
 898 358 l 1
 898 0 l 1
 758 0 l 1
 758 358 l 1
 151 358 l 1
 151 464 l 1
758 1332 m 1
 312 468 l 1
 758 468 l 1
 758 1332 l 1
EndSplineSet
EndChar

StartChar: g
Encoding: 72 103 173
Width: 1078
VWidth: 0
Flags: W
PickledData: "(dp1
S'com.typemytype.robofont.layerData'
p2
(dp3
S'back'
p4
(dp5
S'name'
p6
S'g'
sS'lib'
p7
(dp8
sS'unicodes'
p9
(tsS'width'
p10
I1078
sS'contours'
p11
((dp12
S'points'
p13
((dp14
S'segmentType'
p15
S'curve'
p16
sS'x'
F511
sS'smooth'
p17
I01
sS'y'
F-429
s(dp18
S'y'
F-429
sS'x'
F405
sg17
I00
s(dp19
S'y'
F-382
sS'x'
F223
sg17
I00
s(dp20
g15
S'curve'
p21
sS'x'
F144
sg17
I00
sS'y'
F-192
s(dp22
g15
S'line'
p23
sS'x'
F250
sg17
I00
sS'y'
F-149
s(dp24
S'y'
F-260
sS'x'
F307
sg17
I00
s(dp25
S'y'
F-320
sS'x'
F392
sg17
I00
s(dp26
g15
S'curve'
p27
sS'x'
F530
sg17
I01
sS'y'
F-320
s(dp28
S'y'
F-320
sS'x'
F725
sg17
I00
s(dp29
S'y'
F-187
sS'x'
F820
sg17
I00
s(dp30
g15
S'curve'
p31
sS'x'
F820
sg17
I01
sS'y'
F28
s(dp32
g15
S'line'
p33
sS'x'
F820
sg17
I00
sS'y'
F130
s(dp34
S'y'
F39
sS'x'
F751
sg17
I00
s(dp35
S'y'
F-24
sS'x'
F655
sg17
I00
s(dp36
g15
S'curve'
p37
sS'x'
F510
sg17
I01
sS'y'
F-24
s(dp38
S'y'
F-24
sS'x'
F242
sg17
I00
s(dp39
S'y'
F205
sS'x'
F96
sg17
I00
s(dp40
g15
S'curve'
p41
sS'x'
F96
sg17
I01
sS'y'
F526
s(dp42
S'y'
F823
sS'x'
F96
sg17
I00
s(dp43
S'y'
F1044
sS'x'
F236
sg17
I00
s(dp44
g15
S'curve'
p45
sS'x'
F504
sg17
I01
sS'y'
F1044
s(dp46
S'y'
F1044
sS'x'
F636
sg17
I00
s(dp47
S'y'
F988
sS'x'
F750
sg17
I00
s(dp48
g15
S'curve'
p49
sS'x'
F831
sg17
I00
sS'y'
F891
s(dp50
g15
S'line'
p51
sS'x'
F839
sg17
I00
sS'y'
F1023
s(dp52
g15
S'line'
p53
sS'x'
F953
sg17
I00
sS'y'
F1023
s(dp54
g15
S'line'
p55
sS'x'
F953
sg17
I01
sS'y'
F28
s(dp56
S'y'
F-230
sS'x'
F953
sg17
I00
s(dp57
S'y'
F-429
sS'x'
F813
sg17
I00
stp58
s(dp59
g13
((dp60
g15
S'line'
p61
sS'x'
F820
sg17
I01
sS'y'
F543
s(dp62
S'y'
F886
sS'x'
F820
sg17
I00
s(dp63
S'y'
F940
sS'x'
F634
sg17
I00
s(dp64
g15
S'curve'
p65
sS'x'
F520
sg17
I01
sS'y'
F940
s(dp66
S'y'
F940
sS'x'
F317
sg17
I00
s(dp67
S'y'
F737
sS'x'
F231
sg17
I00
s(dp68
g15
S'curve'
p69
sS'x'
F231
sg17
I01
sS'y'
F530
s(dp70
S'y'
F239
sS'x'
F231
sg17
I00
s(dp71
S'y'
F81
sS'x'
F347
sg17
I00
s(dp72
g15
S'curve'
p73
sS'x'
F515
sg17
I01
sS'y'
F81
s(dp74
S'y'
F81
sS'x'
F649
sg17
I00
s(dp75
S'y'
F148
sS'x'
F820
sg17
I00
s(dp76
g15
S'curve'
p77
sS'x'
F820
sg17
I01
sS'y'
F509
stp78
stp79
sS'components'
p80
(tsS'anchors'
p81
((dp82
S'y'
F1023
sS'x'
F539
sg6
S'top'
p83
stp84
sss."
LayerCount: 2
Fore
SplineSet
820 543 m 2
 820 886 634 940 520 940 c 0
 317 940 231 737 231 530 c 0
 231 239 347 81 515 81 c 0
 649 81 820 148 820 509 c 2
 820 543 l 2
523 -429 m 0
 427 -429 255 -400 166 -252 c 1
 249 -173 l 1
 308 -268 406 -320 536 -320 c 0
 731 -320 820 -187 820 28 c 2
 820 130 l 1
 751 39 655 -24 510 -24 c 0
 242 -24 96 205 96 526 c 0
 96 823 236 1044 504 1044 c 0
 636 1044 750 988 831 891 c 1
 839 1023 l 1
 953 1023 l 1
 953 20 l 2
 953 -238 810 -429 523 -429 c 0
539 1023 m 0
EndSplineSet
EndChar

StartChar: germandbls
Encoding: 147 223 176
Width: 1234
VWidth: 0
Flags: W
PickledData: "(dp1
S'com.typemytype.robofont.layerData'
p2
(dp3
S'back'
p4
(dp5
S'name'
p6
S'germandbls'
p7
sS'lib'
p8
(dp9
sS'unicodes'
p10
(tsS'width'
p11
I1234
sS'contours'
p12
(tsS'components'
p13
(tsS'anchors'
p14
(tsss."
LayerCount: 2
Fore
SplineSet
140 0 m 1
 140 1151 l 2
 140 1373 360 1492 578 1492 c 0
 836 1492 950 1305 950 1150 c 0
 950 1004.55 877.185 884.721 703 843 c 1
 980.172 819.034 1151 643.102 1151 395 c 0
 1151 122 969 -95 451 -134 c 1
 451 -17 l 1
 875 21 1003 193 1003 395 c 0
 1003 604.395 881.791 748 547 748 c 2
 454 748 l 1
 454 855 l 1
 698.177 883.417 814 988.577 814 1149 c 0
 814 1262 731 1388 575 1388 c 0
 430 1388 286 1303 286 1140 c 2
 286 0 l 1
 140 0 l 1
EndSplineSet
EndChar

StartChar: grave
Encoding: 65 96 177
Width: 496
VWidth: 0
Flags: W
PickledData: "(dp1
S'com.typemytype.robofont.layerData'
p2
(dp3
S'back'
p4
(dp5
S'name'
p6
S'grave'
p7
sS'lib'
p8
(dp9
sS'unicodes'
p10
(tsS'width'
p11
I496
sS'contours'
p12
(tsS'components'
p13
(tsS'anchors'
p14
(tsss."
LayerCount: 2
Fore
SplineSet
352 1053 m 1
 352 1053 l 1
47 1492 m 1
 242 1492 l 1
 447 1173 l 1
 353 1172 l 1
 47 1492 l 1
247 1023 m 1
 247 1023 l 1
247 1023 m 0
EndSplineSet
EndChar

StartChar: greater
Encoding: 31 62 178
Width: 1051
VWidth: 0
Flags: W
PickledData: "(dp1
S'com.typemytype.robofont.layerData'
p2
(dp3
S'back'
p4
(dp5
S'name'
p6
S'greater'
p7
sS'lib'
p8
(dp9
sS'unicodes'
p10
(tsS'width'
p11
I1051
sS'contours'
p12
(tsS'components'
p13
(tsS'anchors'
p14
(tsss."
LayerCount: 2
Fore
SplineSet
53 812 m 1
 53 950 l 1
 1002 584 l 1
 1002 458 l 1
 53 103 l 1
 53 255 l 1
 840 528 l 1
 53 812 l 1
EndSplineSet
EndChar

StartChar: guillemotleft
Encoding: 250 171 179
Width: 946
VWidth: 0
Flags: W
PickledData: "(dp1
S'com.typemytype.robofont.layerData'
p2
(dp3
S'back'
p4
(dp5
S'name'
p6
S'guillemotleft'
p7
sS'lib'
p8
(dp9
sS'unicodes'
p10
(tsS'width'
p11
I946
sS'contours'
p12
(tsS'components'
p13
(tsS'anchors'
p14
(tsss."
LayerCount: 2
Fore
SplineSet
894 251 m 1
 449 552 l 1
 449 749 l 1
 894 1050 l 1
 894 909 l 1
 547 650 l 1
 894 393 l 1
 894 251 l 1
51 552 m 1
 51 749 l 1
 496 1050 l 1
 496 909 l 1
 149 650 l 1
 496 393 l 1
 496 251 l 1
 51 552 l 1
520 1260 m 1
 520 1260 l 1
EndSplineSet
EndChar

StartChar: guillemotright
Encoding: 251 187 180
Width: 946
VWidth: 0
Flags: W
PickledData: "(dp1
S'com.typemytype.robofont.layerData'
p2
(dp3
S'back'
p4
(dp5
S'name'
p6
S'guillemotright'
p7
sS'lib'
p8
(dp9
sS'unicodes'
p10
(tsS'width'
p11
I946
sS'contours'
p12
(tsS'components'
p13
(tsS'anchors'
p14
(tsss."
LayerCount: 2
Fore
SplineSet
53 1049 m 1
 498 748 l 1
 498 551 l 1
 53 250 l 1
 53 391 l 1
 400 650 l 1
 53 907 l 1
 53 1049 l 1
896 748 m 1
 896 551 l 1
 451 250 l 1
 451 391 l 1
 798 650 l 1
 451 907 l 1
 451 1049 l 1
 896 748 l 1
427 251 m 1
 427 251 l 1
EndSplineSet
EndChar

StartChar: guilsinglleft
Encoding: 252 8249 181
Width: 528
VWidth: 0
Flags: HW
PickledData: "(dp1
S'com.typemytype.robofont.layerData'
p2
(dp3
S'back'
p4
(dp5
S'name'
p6
S'guilsinglleft'
p7
sS'lib'
p8
(dp9
sS'unicodes'
p10
(tsS'width'
p11
I946
sS'contours'
p12
(tsS'components'
p13
(tsS'anchors'
p14
(tsss."
LayerCount: 2
Fore
SplineSet
51 552 m 1
 51 749 l 1
 435 1050 l 1
 435 909 l 1
 149 650 l 1
 435 393 l 1
 435 251 l 1
 51 552 l 1
EndSplineSet
EndChar

StartChar: h
Encoding: 73 104 182
Width: 1072
VWidth: 0
Flags: W
PickledData: "(dp1
S'com.typemytype.robofont.layerData'
p2
(dp3
S'back'
p4
(dp5
S'name'
p6
S'h'
sS'lib'
p7
(dp8
sS'unicodes'
p9
(tsS'width'
p10
I1072
sS'contours'
p11
(tsS'components'
p12
(tsS'anchors'
p13
(tsss."
LayerCount: 2
Fore
SplineSet
598 940 m 0
 344 940 268 723 268 483 c 2
 268 0 l 1
 126 0 l 1
 126 1473 l 1
 268 1473 l 1
 268 1053 l 1
 268 862 l 1
 356 999 486 1044 619 1044 c 0
 945 1044 976 784 976 583 c 2
 976 0 l 1
 834 0 l 1
 834 594 l 2
 834 807 782 940 598 940 c 0
536 1023 m 0
536 512 m 0
EndSplineSet
EndChar

StartChar: hbar
Encoding: 107 295 183
Width: 1117
VWidth: 0
Flags: W
PickledData: "(dp1
S'com.typemytype.robofont.layerData'
p2
(dp3
S'back'
p4
(dp5
S'name'
p6
S'hbar'
p7
sS'lib'
p8
(dp9
sS'unicodes'
p10
(tsS'width'
p11
I1117
sS'contours'
p12
(tsS'components'
p13
(tsS'anchors'
p14
(tsss."
LayerCount: 2
Fore
SplineSet
-1 1205 m 1
 -1 1299 l 1
 140 1299 l 1
 140 1473 l 1
 283 1473 l 1
 283 1299 l 1
 550 1299 l 1
 550 1205 l 1
 283 1205 l 1
 283 1053 l 2
 283 989 283 925 282 862 c 1
 370 999 501 1044 634 1044 c 0
 960 1044 991 784 991 583 c 2
 991 0 l 1
 849 0 l 1
 849 594 l 2
 849 807 797 940 613 940 c 0
 359 940 283 723 283 483 c 2
 283 0 l 1
 140 0 l 1
 140 1205 l 1
 -1 1205 l 1
EndSplineSet
EndChar

StartChar: hungarumlaut
Encoding: 253 733 184
Width: 745
VWidth: 0
Flags: W
PickledData: "(dp1
S'com.typemytype.robofont.layerData'
p2
(dp3
S'back'
p4
(dp5
S'name'
p6
S'hungarumlaut'
p7
sS'lib'
p8
(dp9
sS'unicodes'
p10
(tsS'width'
p11
I745
sS'contours'
p12
(tsS'components'
p13
(tsS'anchors'
p14
(tsss."
LayerCount: 2
Fore
SplineSet
192 1492 m 1
 387 1492 l 1
 159 1172 l 1
 67 1172 l 1
 192 1492 l 1
490 1492 m 1
 685 1492 l 1
 457 1172 l 1
 365 1172 l 1
 490 1492 l 1
376 1023 m 0
EndSplineSet
EndChar

StartChar: hyphen
Encoding: 14 45 185
Width: 724
VWidth: 0
Flags: W
PickledData: "(dp1
S'com.typemytype.robofont.layerData'
p2
(dp3
S'back'
p4
(dp5
S'name'
p6
S'hyphen'
p7
sS'lib'
p8
(dp9
sS'unicodes'
p10
(tsS'width'
p11
I724
sS'contours'
p12
(tsS'components'
p13
(tsS'anchors'
p14
(tsss."
LayerCount: 2
Fore
SplineSet
135 334 m 1
 135 420 l 1
 589 420 l 1
 589 334 l 1
 135 334 l 1
EndSplineSet
EndChar

StartChar: i
Encoding: 74 105 186
Width: 412
VWidth: 0
Flags: W
PickledData: "(dp1
S'com.typemytype.robofont.layerData'
p2
(dp3
S'back'
p4
(dp5
S'name'
p6
S'i'
sS'lib'
p7
(dp8
sS'unicodes'
p9
(tsS'width'
p10
I412
sS'contours'
p11
(tsS'components'
p12
(tsS'anchors'
p13
(tsss."
LayerCount: 2
Fore
SplineSet
134 1242 m 1
 134 1421 l 1
 275 1421 l 1
 275 1242 l 1
 134 1242 l 1
136 0 m 1
 136 1023 l 1
 278 1023 l 1
 278 0 l 1
 136 0 l 1
EndSplineSet
EndChar

StartChar: j
Encoding: 75 106 196
Width: 523
VWidth: 0
Flags: W
PickledData: "(dp1
S'com.typemytype.robofont.layerData'
p2
(dp3
S'back'
p4
(dp5
S'name'
p6
S'j'
sS'lib'
p7
(dp8
sS'unicodes'
p9
(tsS'width'
p10
I523
sS'contours'
p11
(tsS'components'
p12
(tsS'anchors'
p13
(tsss."
LayerCount: 2
Fore
SplineSet
255 -91 m 2
 255 1023 l 1
 397 1023 l 1
 397 -12 l 2
 397 -217 370 -325 178 -325 c 0
 127 -325 64 -312 16 -284 c 1
 40 -177 l 1
 78 -191 126 -208 159 -208 c 0
 218 -208 255 -182 255 -91 c 2
257 1242 m 1
 257 1421 l 1
 398 1421 l 1
 398 1242 l 1
 257 1242 l 1
EndSplineSet
EndChar

StartChar: k
Encoding: 76 107 198
Width: 1044
VWidth: 0
Flags: W
PickledData: "(dp1
S'com.typemytype.robofont.layerData'
p2
(dp3
S'back'
p4
(dp5
S'name'
p6
S'k'
sS'lib'
p7
(dp8
sS'unicodes'
p9
(tsS'width'
p10
I1044
sS'contours'
p11
(tsS'components'
p12
(tsS'anchors'
p13
(tsss."
LayerCount: 2
Fore
SplineSet
797 1023 m 1
 959 1023 l 1
 578 656 l 1
 1018 0 l 1
 858 0 l 1
 485 570 l 1
 272 369 l 1
 272 0 l 1
 130 0 l 1
 130 1477 l 1
 271 1477 l 1
 271 516 l 1
 797 1023 l 1
522 0 m 0
EndSplineSet
EndChar

StartChar: kgreenlandic
Encoding: 260 312 200
Width: 1080
VWidth: 0
Flags: W
PickledData: "(dp1
S'com.typemytype.robofont.layerData'
p2
(dp3
S'back'
p4
(dp5
S'name'
p6
S'kgreenlandic'
p7
sS'lib'
p8
(dp9
sS'unicodes'
p10
(tsS'width'
p11
I1080
sS'contours'
p12
(tsS'components'
p13
(tsS'anchors'
p14
(tsss."
LayerCount: 2
Fore
SplineSet
807 1023 m 1
 969 1023 l 1
 609 624 l 1
 1028 0 l 1
 868 0 l 1
 516 538 l 1
 282 299 l 1
 282 0 l 1
 140 0 l 1
 140 1024 l 1
 281 1024 l 1
 281 446 l 1
 807 1023 l 1
EndSplineSet
EndChar

StartChar: l
Encoding: 77 108 201
Width: 413
VWidth: 0
Flags: W
PickledData: "(dp1
S'com.typemytype.robofont.layerData'
p2
(dp3
S'back'
p4
(dp5
S'name'
p6
S'l'
sS'lib'
p7
(dp8
sS'unicodes'
p9
(tsS'width'
p10
I413
sS'contours'
p11
(tsS'components'
p12
(tsS'anchors'
p13
(tsss."
LayerCount: 2
Fore
SplineSet
136 0 m 1
 136 1474 l 1
 278 1474 l 1
 278 0 l 1
 136 0 l 1
207 1023 m 0
207 0 m 0
393 1023 m 0
EndSplineSet
EndChar

StartChar: less
Encoding: 29 60 205
Width: 1051
VWidth: 0
Flags: W
PickledData: "(dp1
S'com.typemytype.robofont.layerData'
p2
(dp3
S'back'
p4
(dp5
S'name'
p6
S'less'
p7
sS'lib'
p8
(dp9
sS'unicodes'
p10
(tsS'width'
p11
I1051
sS'contours'
p12
(tsS'components'
p13
(tsS'anchors'
p14
(tsss."
LayerCount: 2
Fore
SplineSet
998 241 m 1
 998 103 l 1
 49 469 l 1
 49 595 l 1
 998 950 l 1
 998 798 l 1
 211 525 l 1
 998 241 l 1
EndSplineSet
EndChar

StartChar: logicalnot
Encoding: 264 172 206
Width: 1024
VWidth: 0
Flags: W
PickledData: "(dp1
S'com.typemytype.robofont.layerData'
p2
(dp3
S'back'
p4
(dp5
S'name'
p6
S'logicalnot'
p7
sS'lib'
p8
(dp9
sS'unicodes'
p10
(tsS'width'
p11
I1024
sS'contours'
p12
(tsS'components'
p13
(tsS'anchors'
p14
(tsss."
LayerCount: 2
Fore
SplineSet
803 335 m 1
 889 335 l 1
 889 756 l 1
 135 756 l 1
 135 670 l 1
 803 670 l 1
 803 335 l 1
EndSplineSet
EndChar

StartChar: lslash
Encoding: 265 322 207
Width: 421
VWidth: 0
Flags: HW
PickledData: "(dp1
S'com.typemytype.robofont.layerData'
p2
(dp3
S'back'
p4
(dp5
S'name'
p6
S'lslash'
p7
sS'lib'
p8
(dp9
sS'unicodes'
p10
(tsS'width'
p11
I421
sS'contours'
p12
(tsS'components'
p13
(tsS'anchors'
p14
(tsss."
LayerCount: 2
Fore
SplineSet
-26 662 m 1
 -26 797 l 1
 140 879 l 1
 140 1474 l 1
 283 1474 l 1
 283 949 l 1
 448 1024 l 1
 448 889 l 1
 283 814 l 1
 283 -1 l 1
 140 -1 l 1
 140 744 l 1
 -26 662 l 1
EndSplineSet
EndChar

StartChar: m
Encoding: 78 109 208
Width: 1662
VWidth: 0
Flags: W
PickledData: "(dp1
S'com.typemytype.robofont.layerData'
p2
(dp3
S'back'
p4
(dp5
S'name'
p6
S'm'
sS'lib'
p7
(dp8
sS'unicodes'
p9
(tsS'width'
p10
I1662
sS'contours'
p11
(tsS'components'
p12
(tsS'anchors'
p13
(tsss."
LayerCount: 2
Fore
SplineSet
562 940 m 0
 380 940 267 757 267 583 c 2
 267 0 l 1
 125 0 l 1
 125 1023 l 1
 262 1023 l 1
 266 861 l 1
 346 998 474 1044 592 1044 c 0
 749 1044 842 961 878 832 c 1
 952 987 1112 1044 1235 1044 c 0
 1514 1044 1541 789 1541 576 c 2
 1541 0 l 1
 1399 0 l 1
 1399 607 l 2
 1399 802 1355 940 1198 940 c 0
 1022 940 903 761 903 591 c 2
 903 0 l 1
 761 0 l 1
 761 607 l 2
 761 805 716 940 562 940 c 0
EndSplineSet
EndChar

StartChar: macron
Encoding: 266 175 209
Width: 724
VWidth: 0
Flags: W
PickledData: "(dp1
S'com.typemytype.robofont.layerData'
p2
(dp3
S'back'
p4
(dp5
S'name'
p6
S'macron'
p7
sS'lib'
p8
(dp9
sS'unicodes'
p10
(tsS'width'
p11
I724
sS'contours'
p12
(tsS'components'
p13
(tsS'anchors'
p14
(tsss."
LayerCount: 2
Fore
SplineSet
364 1024 m 1
 364 1024 l 1
135 1219 m 1
 135 1329 l 1
 589 1329 l 1
 589 1219 l 1
 135 1219 l 1
362 1023 m 1
 362 1023 l 1
362 1023 m 0
EndSplineSet
EndChar

StartChar: minus
Encoding: 267 8722 210
Width: 1024
VWidth: 0
Flags: W
PickledData: "(dp1
S'com.typemytype.robofont.layerData'
p2
(dp3
S'back'
p4
(dp5
S'name'
p6
S'minus'
p7
sS'lib'
p8
(dp9
sS'unicodes'
p10
(tsS'width'
p11
I1024
sS'contours'
p12
(tsS'components'
p13
(tsS'anchors'
p14
(tsss."
LayerCount: 2
Fore
SplineSet
803 670 m 1
 803 756 l 1
 135 756 l 1
 135 670 l 1
 803 670 l 1
EndSplineSet
EndChar

StartChar: mu
Encoding: 268 956 211
Width: 1119
VWidth: 0
Flags: W
PickledData: "(dp1
S'com.typemytype.robofont.layerData'
p2
(dp3
S'back'
p4
(dp5
S'name'
p6
S'mu'
p7
sS'lib'
p8
(dp9
sS'unicodes'
p10
(tsS'width'
p11
I1119
sS'contours'
p12
(tsS'components'
p13
(tsS'anchors'
p14
(tsss."
LayerCount: 2
Fore
SplineSet
842 436 m 2
 842 1023 l 1
 984 1023 l 1
 984 0 l 1
 847 0 l 1
 843 159 l 1
 721 -34 443 -86 282 57 c 1
 282 -194 l 1
 135 -194 l 1
 135 1023 l 1
 282 1023 l 1
 282 356 l 2
 282 189 335 87 506 87 c 0
 769 87 842 331 842 436 c 2
EndSplineSet
EndChar

StartChar: multiply
Encoding: 141 215 212
Width: 734
VWidth: 0
Flags: W
PickledData: "(dp1
S'com.typemytype.robofont.layerData'
p2
(dp3
S'back'
p4
(dp5
S'name'
p6
S'multiply'
p7
sS'lib'
p8
(dp9
sS'unicodes'
p10
(tsS'width'
p11
I734
sS'contours'
p12
(tsS'components'
p13
(tsS'anchors'
p14
(tsss."
LayerCount: 2
Fore
SplineSet
190 203 m 1
 120 273 l 1
 296 449 l 1
 119 626 l 1
 191 698 l 1
 368 521 l 1
 544 697 l 1
 614 627 l 1
 438 451 l 1
 615 274 l 1
 543 202 l 1
 366 379 l 1
 190 203 l 1
EndSplineSet
EndChar

StartChar: n
Encoding: 79 110 213
Width: 1097
VWidth: 0
Flags: W
PickledData: "(dp1
S'com.typemytype.robofont.layerData'
p2
(dp3
S'back'
p4
(dp5
S'name'
p6
S'n'
sS'lib'
p7
(dp8
sS'unicodes'
p9
(tsS'width'
p10
I1097
sS'contours'
p11
((dp12
S'points'
p13
((dp14
S'segmentType'
p15
S'line'
p16
sS'x'
F126
sS'smooth'
p17
I00
sS'y'
F0
s(dp18
g15
S'line'
p19
sS'x'
F126
sg17
I00
sS'y'
F1023
s(dp20
g15
S'line'
p21
sS'x'
F264
sg17
I00
sS'y'
F1023
s(dp22
S'y'
F1023
sS'x'
F264
sg17
I00
s(dp23
S'y'
F829.05399999999997
sS'x'
F263.67700000000002
sg17
I00
s(dp24
g15
S'curve'
p25
sS'x'
F264
sg17
I01
sS'y'
F830
s(dp26
S'y'
F983.24900000000002
sS'x'
F316.27499999999998
sg17
I00
s(dp27
S'y'
F1044
sS'x'
F490.34100000000001
sg17
I00
s(dp28
g15
S'curve'
p29
sS'x'
F622
sg17
I01
sS'y'
F1044
s(dp30
S'y'
F1044
sS'x'
F945
sg17
I00
s(dp31
S'y'
F790
sS'x'
F976
sg17
I00
s(dp32
g15
S'curve'
p33
sS'x'
F976
sg17
I01
sS'y'
F584
s(dp34
g15
S'line'
p35
sS'x'
F976
sg17
I00
sS'y'
F0
s(dp36
g15
S'line'
p37
sS'x'
F834
sg17
I00
sS'y'
F0
s(dp38
g15
S'line'
p39
sS'x'
F834
sg17
I01
sS'y'
F603
s(dp40
S'y'
F806
sS'x'
F834
sg17
I00
s(dp41
S'y'
F930
sS'x'
F781
sg17
I00
s(dp42
g15
S'curve'
p43
sS'x'
F602
sg17
I01
sS'y'
F930
s(dp44
S'y'
F930
sS'x'
F277
sg17
I00
s(dp45
S'y'
F627
sS'x'
F268
sg17
I00
s(dp46
g15
S'curve'
p47
sS'x'
F268
sg17
I01
sS'y'
F496
s(dp48
g15
S'line'
p49
sS'x'
F268
sg17
I00
sS'y'
F0
stp50
stp51
sS'components'
p52
(tsS'anchors'
p53
((dp54
S'y'
F0
sS'x'
F549
sg6
S'bottom'
p55
s(dp56
S'y'
F1023
sS'x'
F549
sg6
S'top'
p57
stp58
sss."
LayerCount: 2
Fore
SplineSet
126 0 m 1
 126 1023 l 1
 264 1023 l 1
 264 1023 263.677 829.054 264 830 c 0
 316.275 983.249 490.341 1044 622 1044 c 0
 945 1044 976 790 976 584 c 2
 976 0 l 1
 834 0 l 1
 834 603 l 2
 834 806 781 930 602 930 c 0
 339 930 268 739 268 499 c 2
 268 0 l 1
 126 0 l 1
549 1023 m 0
549 0 m 0
EndSplineSet
EndChar

StartChar: nine
Encoding: 26 57 217
Width: 1224
VWidth: 0
Flags: W
PickledData: "(dp1
S'com.typemytype.robofont.layerData'
p2
(dp3
S'back'
p4
(dp5
S'name'
p6
S'nine'
p7
sS'lib'
p8
(dp9
sS'unicodes'
p10
(tsS'width'
p11
I1224
sS'contours'
p12
(tsS'components'
p13
(tsS'anchors'
p14
(tsss."
LayerCount: 2
Fore
SplineSet
927 643 m 1
 826 569 716.66 525 606.187 525 c 0
 353.543 525 134 681.656 134 987 c 0
 134 1237.49 271.634 1492.04 601.531 1492.04 c 0
 939.362 1492.04 1088 1236 1088 771 c 0
 1088 256 875.109 -19 570.106 -19 c 0
 471.066 -19 361.371 11.458 242.421 74.8223 c 1
 283.228 186.358 l 1
 386.871 129.438 479.482 99 565.23 99 c 0
 769.72 99 905 279 927 643 c 1
933 773 m 1
 934 797 934 841 934 864 c 0
 934 1118 862.569 1374 592.535 1374 c 0
 426.858 1374 285 1233.43 285 991 c 0
 285 738.777 430.079 644 608.137 644 c 0
 714.683 644 836 698 933 773 c 1
EndSplineSet
EndChar

StartChar: numbersign
Encoding: 4 35 219
Width: 1221
VWidth: 0
Flags: W
PickledData: "(dp1
S'com.typemytype.robofont.layerData'
p2
(dp3
S'back'
p4
(dp5
S'name'
p6
S'numbersign'
p7
sS'lib'
p8
(dp9
sS'unicodes'
p10
(tsS'width'
p11
I1221
sS'contours'
p12
(tsS'components'
p13
(tsS'anchors'
p14
(tsss."
LayerCount: 2
Fore
SplineSet
51 551 m 1
 80 649 l 1
 1106 649 l 1
 1077 551 l 1
 51 551 l 1
1041 1464 m 1
 740 1 l 1
 606 0 l 1
 902 1463 l 1
 1041 1464 l 1
278 1 m 1
 144 0 l 1
 440 1463 l 1
 579 1464 l 1
 278 1 l 1
149 999 m 1
 1175 999 l 1
 1146 901 l 1
 120 901 l 1
 149 999 l 1
204 0 m 1
 204 0 l 1
204 0 m 1
 204 0 l 1
619 0 m 1
 619 0 l 1
619 0 m 1
 619 0 l 1
619 0 m 1
 619 0 l 1
619 0 m 1
 619 0 l 1
EndSplineSet
EndChar

StartChar: o
Encoding: 80 111 220
Width: 1068
VWidth: 0
Flags: W
PickledData: "(dp1
S'com.typemytype.robofont.layerData'
p2
(dp3
S'back'
p4
(dp5
S'name'
p6
S'o'
sS'lib'
p7
(dp8
sS'unicodes'
p9
(tsS'width'
p10
I1068
sS'contours'
p11
(tsS'components'
p12
(tsS'anchors'
p13
(tsss."
LayerCount: 2
Fore
SplineSet
535 1044 m 0
 786 1044 972 873 972 513 c 0
 972 162 799 -24 534 -24 c 0
 269 -24 96 161 96 510 c 0
 96 872 281 1044 535 1044 c 0
534 940 m 0
 300 940 239 720 239 513 c 0
 239 302 300 81 535 81 c 0
 768 81 830 301 830 511 c 0
 830 720 766 940 534 940 c 0
534 1023 m 0
EndSplineSet
EndChar

StartChar: oe
Encoding: 273 339 225
Width: 1878
VWidth: 0
Flags: W
PickledData: "(dp1
S'com.typemytype.robofont.layerData'
p2
(dp3
S'back'
p4
(dp5
S'name'
p6
S'oe'
p7
sS'lib'
p8
(dp9
sS'unicodes'
p10
(tsS'width'
p11
I1878
sS'contours'
p12
(tsS'components'
p13
(tsS'anchors'
p14
(tsss."
LayerCount: 2
Fore
SplineSet
884 510 m 0
 884 721 822 940 591 940 c 0
 358 940 299 719 299 512 c 0
 299 302 359 80 592 80 c 0
 824 80 884 299 884 510 c 0
1315 942 m 0
 1133 942 1038 792 1028 592 c 1
 1589 592 l 1
 1587 802 1506 942 1315 942 c 0
1319 1044 m 0
 1603 1043 1726 828 1726 558 c 1
 1725 549 1724 516 1722 500 c 1
 1026 500 l 1
 1026 289 1095 80 1330 80 c 0
 1483 80 1565 203 1608 317 c 1
 1704 276 l 1
 1651 79 1499 -21 1332 -24 c 1
 1141 -24 1023 65 957 199 c 1
 885 51 755 -24 591 -24 c 0
 328 -24 156 162 156 511 c 0
 156 872 340 1044 593 1044 c 0
 750 1044 885 971 959 819 c 1
 1029 960 1152 1044 1319 1044 c 0
939 1023 m 0
EndSplineSet
EndChar

StartChar: ogonek
Encoding: 274 731 226
Width: 462
VWidth: 0
Flags: W
PickledData: "(dp1
S'com.typemytype.robofont.layerData'
p2
(dp3
S'back'
p4
(dp5
S'name'
p6
S'ogonek'
p7
sS'lib'
p8
(dp9
sS'unicodes'
p10
(tsS'width'
p11
I462
sS'contours'
p12
(tsS'components'
p13
(tsS'anchors'
p14
(tsss."
LayerCount: 2
Fore
SplineSet
276 0 m 1
 276 0 l 1
315 0 m 1
 281 -74 238 -161 238 -219 c 0
 238 -257 257 -283 311 -283 c 0
 321 -283 333 -281 346 -278 c 1
 346 -361 l 1
 322 -367 300 -369 281 -369 c 0
 175 -369 117 -309 117 -241 c 0
 117 -152 197 -34 244 0 c 1
 315 0 l 1
346 10 m 1
 346 10 l 1
346 10 m 0
EndSplineSet
EndChar

StartChar: one
Encoding: 18 49 230
Width: 546
VWidth: 0
Flags: W
PickledData: "(dp1
S'com.typemytype.robofont.layerData'
p2
(dp3
S'back'
p4
(dp5
S'name'
p6
S'one'
p7
sS'lib'
p8
(dp9
sS'unicodes'
p10
(tsS'width'
p11
I546
sS'contours'
p12
((dp13
S'points'
p14
((dp15
S'segmentType'
p16
S'line'
p17
sS'x'
F1279
sS'smooth'
p18
I00
sS'y'
F836
s(dp19
g16
S'line'
p20
sS'x'
F1279
sg18
I00
sS'y'
F1464
s(dp21
g16
S'line'
p22
sS'x'
F1424
sg18
I00
sS'y'
F1464
s(dp23
g16
S'line'
p24
sS'x'
F1424
sg18
I00
sS'y'
F0
s(dp25
g16
S'line'
p26
sS'x'
F1279
sg18
I00
sS'y'
F0
s(dp27
g16
S'line'
p28
sS'x'
F1279
sg18
I00
sS'y'
F720
s(dp29
g16
S'line'
p30
sS'x'
F409
sg18
I00
sS'y'
F720
s(dp31
g16
S'line'
p32
sS'x'
F409
sg18
I00
sS'y'
F0
s(dp33
g16
S'line'
p34
sS'x'
F263
sg18
I00
sS'y'
F0
s(dp35
g16
S'line'
p36
sS'x'
F263
sg18
I00
sS'y'
F1464
s(dp37
g16
S'line'
p38
sS'x'
F409
sg18
I00
sS'y'
F1464
s(dp39
g16
S'line'
p40
sS'x'
F409
sg18
I00
sS'y'
F836
stp41
stp42
sS'components'
p43
(tsS'anchors'
p44
((dp45
S'y'
F732
sS'x'
F729
sg6
S'center'
p46
s(dp47
S'y'
F1464
sS'x'
F729
sg6
S'top'
p48
stp49
sss."
LayerCount: 2
Fore
SplineSet
263 1328 m 1
 263 0 l 1
 409 0 l 1
 409 1464 l 1
 280 1464 l 1
 33 1364 l 1
 77 1248 l 1
 263 1328 l 1
EndSplineSet
EndChar

StartChar: onehalf
Encoding: 118 189 231
Width: 1361
VWidth: 0
Flags: W
PickledData: "(dp1
S'com.typemytype.robofont.layerData'
p2
(dp3
S'back'
p4
(dp5
S'name'
p6
S'onehalf'
p7
sS'lib'
p8
(dp9
sS'unicodes'
p10
(tsS'width'
p11
I1361
sS'contours'
p12
(tsS'components'
p13
(tsS'anchors'
p14
(tsss."
LayerCount: 2
Fore
SplineSet
86 -14 m 1
 1321 1415 l 1
 1244 1481 l 1
 8 52 l 1
 86 -14 l 1
302 1365 m 1
 302 769 l 1
 415 769 l 1
 415 1464 l 1
 312 1464 l 1
 164 1397 l 1
 185 1307 l 1
 302 1365 l 1
1231 0 m 1
 1231 80 l 1
 901 80 l 1
 992 235 1229 279 1229 497 c 0
 1229 640 1107 712 990 712 c 0
 884 712 778 658 735 537 c 1
 750 531 825 493 825 492 c 1
 843 574 918 617 989 617 c 0
 1057 617 1121 576 1121 490 c 0
 1121 489 1121 488 1121 487 c 0
 1121 336 763 225 756 0 c 1
 1231 0 l 1
EndSplineSet
EndChar

StartChar: onequarter
Encoding: 277 188 232
Width: 1403
VWidth: 0
Flags: W
PickledData: "(dp1
S'com.typemytype.robofont.layerData'
p2
(dp3
S'back'
p4
(dp5
S'name'
p6
S'onequarter'
p7
sS'lib'
p8
(dp9
sS'unicodes'
p10
(tsS'width'
p11
I1403
sS'contours'
p12
(tsS'components'
p13
(tsS'anchors'
p14
(tsss."
LayerCount: 2
Fore
SplineSet
68 52 m 1
 146 -14 l 1
 1381 1415 l 1
 1304 1481 l 1
 68 52 l 1
302 1365 m 1
 302 769 l 1
 415 769 l 1
 415 1464 l 1
 312 1464 l 1
 164 1397 l 1
 185 1307 l 1
 302 1365 l 1
707 152 m 1
 1058 152 l 1
 1058 0 l 1
 1173 0 l 1
 1173 152 l 1
 1273 152 l 1
 1273 234 l 1
 1173 234 l 1
 1173 693 l 1
 1027 693 l 1
 707 220 l 1
 707 152 l 1
1058 234 m 1
 821 234 l 1
 1058 585 l 1
 1058 234 l 1
EndSplineSet
EndChar

StartChar: oslash
Encoding: 280 248 235
Width: 1068
VWidth: 0
Flags: W
PickledData: "(dp1
S'com.typemytype.robofont.layerData'
p2
(dp3
S'back'
p4
(dp5
S'name'
p6
S'oslash'
p7
sS'lib'
p8
(dp9
sS'unicodes'
p10
(tsS'width'
p11
I1068
sS'contours'
p12
(tsS'components'
p13
(tsS'anchors'
p14
(tsss."
LayerCount: 2
Fore
SplineSet
254 -197 m 1
 181 -159 l 1
 834 1216 l 1
 906 1178 l 1
 254 -197 l 1
534 1023 m 0
EndSplineSet
Refer: 220 111 N 1 0 0 1 0 0 2
EndChar

StartChar: p
Encoding: 81 112 237
Width: 1057
VWidth: 0
Flags: W
PickledData: "(dp1
S'com.typemytype.robofont.layerData'
p2
(dp3
S'back'
p4
(dp5
S'name'
p6
S'p'
sS'lib'
p7
(dp8
sS'unicodes'
p9
(tsS'width'
p10
I1057
sS'contours'
p11
(tsS'components'
p12
(tsS'anchors'
p13
(tsss."
LayerCount: 2
Fore
SplineSet
257 858 m 1
 320 976 418 1044 567 1044 c 0
 842 1044 961 812 961 520 c 0
 961 217 840 -21 574 -24 c 1
 435 -24 325 40 266 154 c 1
 267 110 267 65 267 21 c 2
 267 -350 l 1
 125 -350 l 1
 125 1023 l 1
 247 1023 l 1
 257 858 l 1
552 940 m 0
 300 940 264 737 264 519 c 0
 264 294 321 81 553 81 c 0
 718 81 816 243 816 521 c 0
 816 767 720 940 552 940 c 0
EndSplineSet
EndChar

StartChar: paragraph
Encoding: 282 182 238
Width: 1170
VWidth: 0
Flags: W
PickledData: "(dp1
S'com.typemytype.robofont.layerData'
p2
(dp3
S'back'
p4
(dp5
S'name'
p6
S'paragraph'
p7
sS'lib'
p8
(dp9
sS'unicodes'
p10
(tsS'width'
p11
I1170
sS'contours'
p12
(tsS'components'
p13
(tsS'anchors'
p14
(tsss."
LayerCount: 2
Fore
SplineSet
547 0 m 1
 547 669 l 1
 218 699 53 797 53 1076 c 0
 53 1355 221 1464 775 1464 c 2
 1126 1464 l 1
 1126 1349 l 1
 956 1349 l 1
 956 0 l 1
 806 0 l 1
 806 657 l 1
 770 657 729 658 697 659 c 1
 697 0 l 1
 547 0 l 1
EndSplineSet
EndChar

StartChar: parenleft
Encoding: 9 40 239
Width: 602
VWidth: 0
Flags: W
PickledData: "(dp1
S'com.typemytype.robofont.layerData'
p2
(dp3
S'back'
p4
(dp5
S'name'
p6
S'parenleft'
p7
sS'lib'
p8
(dp9
sS'unicodes'
p10
(tsS'width'
p11
I602
sS'contours'
p12
(tsS'components'
p13
(tsS'anchors'
p14
(tsss."
LayerCount: 2
Fore
SplineSet
523 1487 m 1
 560 1392 l 1
 290 1316 205 1027 205 613 c 0
 205 198 291 -91 560 -163 c 1
 523 -260 l 1
 231 -190 54 74 54 613 c 0
 54 1152 232 1418 523 1487 c 1
EndSplineSet
EndChar

StartChar: parenright
Encoding: 10 41 240
Width: 603
VWidth: 0
Flags: W
PickledData: "(dp1
S'com.typemytype.robofont.layerData'
p2
(dp3
S'back'
p4
(dp5
S'name'
p6
S'parenright'
p7
sS'lib'
p8
(dp9
sS'unicodes'
p10
(tsS'width'
p11
I603
sS'contours'
p12
(tsS'components'
p13
(tsS'anchors'
p14
(tsss."
LayerCount: 2
Fore
SplineSet
43 1392 m 1
 79 1487 l 1
 370 1418 549 1152 549 613 c 0
 549 74 372 -190 79 -260 c 1
 43 -163 l 1
 311 -91 396 198 396 613 c 0
 396 1027 311 1316 43 1392 c 1
EndSplineSet
EndChar

StartChar: percent
Encoding: 6 37 241
Width: 1677
VWidth: 0
Flags: W
PickledData: "(dp1
S'com.typemytype.robofont.layerData'
p2
(dp3
S'back'
p4
(dp5
S'name'
p6
S'percent'
p7
sS'lib'
p8
(dp9
sS'unicodes'
p10
(tsS'width'
p11
I1677
sS'contours'
p12
(tsS'components'
p13
(tsS'anchors'
p14
(tsss."
LayerCount: 2
Fore
SplineSet
268 -14 m 1
 1503 1415 l 1
 1426 1481 l 1
 190 52 l 1
 268 -14 l 1
357 1466 m 0
 558 1466 660 1292 660 1120 c 0
 660 946 558 774 357 774 c 0
 152 774 50 945 50 1118 c 0
 50 1291 154 1466 357 1466 c 0
357 1374 m 0
 225 1374 161 1249 161 1123 c 0
 161 995 227 868 357 868 c 0
 484 868 548 995 548 1122 c 0
 548 1248 485 1374 357 1374 c 0
1325 692 m 0
 1527 692 1628 518 1628 346 c 0
 1628 172 1527 0 1325 0 c 0
 1120 0 1019 171 1019 344 c 0
 1019 517 1122 692 1325 692 c 0
1325 599 m 0
 1194 599 1129 474 1129 349 c 0
 1129 221 1196 93 1325 93 c 0
 1452 93 1517 221 1517 348 c 0
 1517 473 1453 599 1325 599 c 0
EndSplineSet
EndChar

StartChar: period
Encoding: 15 46 242
Width: 434
VWidth: 0
Flags: W
PickledData: "(dp1
S'com.typemytype.robofont.layerData'
p2
(dp3
S'back'
p4
(dp5
S'name'
p6
S'period'
p7
sS'lib'
p8
(dp9
sS'unicodes'
p10
(tsS'width'
p11
I434
sS'contours'
p12
(tsS'components'
p13
(tsS'anchors'
p14
(tsss."
LayerCount: 2
Fore
SplineSet
135 215 m 1
 299 215 l 1
 299 0 l 1
 135 0 l 1
 135 215 l 1
EndSplineSet
EndChar

StartChar: periodcentered
Encoding: 112 183 243
Width: 434
VWidth: 0
Flags: W
PickledData: "(dp1
S'com.typemytype.robofont.layerData'
p2
(dp3
S'back'
p4
(dp5
S'name'
p6
S'periodcentered'
p7
sS'lib'
p8
(dp9
sS'unicodes'
p10
(tsS'width'
p11
I434
sS'contours'
p12
(tsS'components'
p13
(tsS'anchors'
p14
(tsss."
LayerCount: 2
Fore
SplineSet
135 758 m 1
 299 758 l 1
 299 543 l 1
 135 543 l 1
 135 758 l 1
EndSplineSet
EndChar

StartChar: plus
Encoding: 12 43 244
Width: 860
VWidth: 0
Flags: W
PickledData: "(dp1
S'com.typemytype.robofont.layerData'
p2
(dp3
S'back'
p4
(dp5
S'name'
p6
S'plus'
p7
sS'lib'
p8
(dp9
sS'unicodes'
p10
(tsS'width'
p11
I860
sS'contours'
p12
(tsS'components'
p13
(tsS'anchors'
p14
(tsss."
LayerCount: 2
Fore
SplineSet
130 673 m 1
 130 773 l 1
 379 773 l 1
 379 1023 l 1
 481 1023 l 1
 481 773 l 1
 730 773 l 1
 730 673 l 1
 481 673 l 1
 481 423 l 1
 379 423 l 1
 379 673 l 1
 130 673 l 1
EndSplineSet
EndChar

StartChar: plusminus
Encoding: 283 177 245
Width: 860
VWidth: 0
Flags: W
PickledData: "(dp1
S'com.typemytype.robofont.layerData'
p2
(dp3
S'back'
p4
(dp5
S'name'
p6
S'plusminus'
p7
sS'lib'
p8
(dp9
sS'unicodes'
p10
(tsS'width'
p11
I860
sS'contours'
p12
(tsS'components'
p13
(tsS'anchors'
p14
(tsss."
LayerCount: 2
Fore
SplineSet
129 247 m 1
 129 333 l 1
 730 333 l 1
 730 247 l 1
 129 247 l 1
130 673 m 1
 130 773 l 1
 379 773 l 1
 379 1023 l 1
 481 1023 l 1
 481 773 l 1
 730 773 l 1
 730 673 l 1
 481 673 l 1
 481 423 l 1
 379 423 l 1
 379 673 l 1
 130 673 l 1
EndSplineSet
EndChar

StartChar: q
Encoding: 82 113 246
Width: 1055
VWidth: 0
Flags: W
PickledData: "(dp1
S'com.typemytype.robofont.layerData'
p2
(dp3
S'back'
p4
(dp5
S'name'
p6
S'q'
sS'lib'
p7
(dp8
sS'unicodes'
p9
(tsS'width'
p10
I1055
sS'contours'
p11
(tsS'components'
p12
(tsS'anchors'
p13
(tsss."
LayerCount: 2
Fore
SplineSet
482 1044 m 0
 618 1044 738 997 798 862 c 1
 813 1023 l 1
 930 1023 l 1
 930 -350 l 1
 787 -350 l 1
 787 12 l 1
 787 155 l 1
 730 39 621 -24 480 -24 c 0
 220 -24 96 212 96 518 c 0
 96 809 220 1044 482 1044 c 0
503 940 m 0
 335 940 241 763 241 522 c 0
 241 244 337 81 499 81 c 0
 740 81 787 294 787 501 c 0
 787 736 744 940 503 940 c 0
EndSplineSet
EndChar

StartChar: question
Encoding: 32 63 247
Width: 1102
VWidth: 0
Flags: W
PickledData: "(dp1
S'com.typemytype.robofont.layerData'
p2
(dp3
S'back'
p4
(dp5
S'name'
p6
S'question'
p7
sS'lib'
p8
(dp9
sS'unicodes'
p10
(tsS'width'
p11
I1102
sS'contours'
p12
(tsS'components'
p13
(tsS'anchors'
p14
(tsss."
LayerCount: 2
Fore
SplineSet
558 1380 m 0
 316 1380 192 1214 152 1177 c 1
 77 1254 l 1
 198 1427 390 1491 552 1491 c 0
 862 1491 1009 1310 1009 1102 c 0
 1009 875 864 809 701 637 c 1
 618 554 564 461 564 298 c 1
 441 298 l 1
 441 599 582 700 717 812 c 0
 816 894 872 993 872 1101 c 0
 872 1248 785 1380 558 1380 c 0
418 215 m 1
 582 215 l 1
 582 0 l 1
 418 0 l 1
 418 215 l 1
EndSplineSet
EndChar

StartChar: quotedbl
Encoding: 3 34 249
Width: 650
VWidth: 0
Flags: W
PickledData: "(dp1
S'com.typemytype.robofont.layerData'
p2
(dp3
S'back'
p4
(dp5
S'name'
p6
S'quotedbl'
p7
sS'lib'
p8
(dp9
sS'unicodes'
p10
(tsS'width'
p11
I650
sS'contours'
p12
(tsS'components'
p13
(tsS'anchors'
p14
(tsss."
LayerCount: 2
Fore
SplineSet
527 1464 m 1
 476 1000 l 1
 425 1000 l 1
 373 1464 l 1
 527 1464 l 1
123 1464 m 1
 277 1464 l 1
 226 1000 l 1
 175 1000 l 1
 123 1464 l 1
EndSplineSet
EndChar

StartChar: quotedblbase
Encoding: 285 8222 250
Width: 744
VWidth: 0
Flags: W
PickledData: "(dp1
S'com.typemytype.robofont.layerData'
p2
(dp3
S'back'
p4
(dp5
S'name'
p6
S'quotedblbase'
p7
sS'lib'
p8
(dp9
sS'unicodes'
p10
(tsS'width'
p11
I744
sS'contours'
p12
(tsS'components'
p13
(tsS'anchors'
p14
(tsss."
LayerCount: 2
Fore
SplineSet
436 -71 m 1
 454 93 l 1
 628 93 l 1
 624 -87 627 -269 467 -382 c 1
 418 -319 l 1
 443 -296 494 -229 497 -109 c 1
 477 -97 457 -83 436 -71 c 1
128 -71 m 1
 146 93 l 1
 320 93 l 1
 316 -87 319 -269 159 -382 c 1
 110 -319 l 1
 135 -296 186 -229 189 -109 c 1
 169 -97 149 -83 128 -71 c 1
EndSplineSet
EndChar

StartChar: quotedblleft
Encoding: 286 8220 251
Width: 744
VWidth: 0
Flags: W
PickledData: "(dp1
S'com.typemytype.robofont.layerData'
p2
(dp3
S'back'
p4
(dp5
S'name'
p6
S'quotedblleft'
p7
sS'lib'
p8
(dp9
sS'unicodes'
p10
(tsS'width'
p11
I744
sS'contours'
p12
(tsS'components'
p13
(tsS'anchors'
p14
(tsss."
LayerCount: 2
Fore
SplineSet
579 1473 m 1
 628 1410 l 1
 603 1387 550 1319 547 1196 c 1
 615 1183 l 1
 613 1120 611 1058 610 997 c 1
 417 995 l 1
 418 1084 l 1
 423 1242 445 1378 579 1473 c 1
285 1473 m 1
 334 1410 l 1
 309 1387 256 1319 253 1197 c 1
 322 1183 l 1
 316 997 l 1
 123 995 l 1
 125 1084 l 2
 128 1240 151 1379 285 1473 c 1
EndSplineSet
EndChar

StartChar: quotedblright
Encoding: 287 8221 252
Width: 729
VWidth: 0
Flags: W
PickledData: "(dp1
S'com.typemytype.robofont.layerData'
p2
(dp3
S'back'
p4
(dp5
S'name'
p6
S'quotedblright'
p7
sS'lib'
p8
(dp9
sS'unicodes'
p10
(tsS'width'
p11
I729
sS'contours'
p12
(tsS'components'
p13
(tsS'anchors'
p14
(tsss."
LayerCount: 2
Fore
SplineSet
420 1302 m 1
 438 1467 l 1
 613 1466 l 1
 608 1287 611 1103 452 991 c 1
 401 1054 l 1
 426 1075 478 1142 481 1263 c 1
 460 1276 441 1291 420 1302 c 1
128 1302 m 1
 146 1467 l 1
 321 1466 l 1
 317 1286 319 1104 159 991 c 1
 109 1054 l 1
 135 1077 186 1144 189 1264 c 1
 169 1276 149 1290 128 1302 c 1
EndSplineSet
EndChar

StartChar: quoteleft
Encoding: 288 8216 253
Width: 461
VWidth: 0
Flags: W
PickledData: "(dp1
S'com.typemytype.robofont.layerData'
p2
(dp3
S'back'
p4
(dp5
S'name'
p6
S'quoteleft'
p7
sS'lib'
p8
(dp9
sS'unicodes'
p10
(tsS'width'
p11
I461
sS'contours'
p12
(tsS'components'
p13
(tsS'anchors'
p14
(tsss."
LayerCount: 2
Fore
SplineSet
265 1469 m 1
 287 1457 310 1444 334 1431 c 1
 309.258 1367.38 256 1297.97 256 1200 c 1
 330 1187 l 1
 330 1122 330 1058 331 993 c 1
 133 992 l 1
 129 1089 l 1
 129 1235 148 1371 265 1469 c 1
EndSplineSet
EndChar

StartChar: quoteright
Encoding: 289 8217 254
Width: 438
VWidth: 0
Flags: W
PickledData: "(dp1
S'com.typemytype.robofont.layerData'
p2
(dp3
S'back'
p4
(dp5
S'name'
p6
S'quoteright'
p7
sS'lib'
p8
(dp9
sS'unicodes'
p10
(tsS'width'
p11
I438
sS'contours'
p12
(tsS'components'
p13
(tsS'anchors'
p14
(tsss."
LayerCount: 2
Fore
SplineSet
129 1302 m 1
 147 1467 l 1
 321 1466 l 1
 317 1286 320 1104 160 991 c 1
 111 1054 l 1
 136 1077 187 1144 190 1264 c 1
 170 1276 150 1290 129 1302 c 1
EndSplineSet
EndChar

StartChar: quotesinglbase
Encoding: 290 8218 255
Width: 436
VWidth: 0
Flags: W
PickledData: "(dp1
S'com.typemytype.robofont.layerData'
p2
(dp3
S'back'
p4
(dp5
S'name'
p6
S'quotesinglbase'
p7
sS'lib'
p8
(dp9
sS'unicodes'
p10
(tsS'width'
p11
I436
sS'contours'
p12
(tsS'components'
p13
(tsS'anchors'
p14
(tsss."
LayerCount: 2
Fore
SplineSet
128 -71 m 1
 146 93 l 1
 320 93 l 1
 316 -87 319 -269 159 -382 c 1
 110 -319 l 1
 135 -296 186 -229 189 -109 c 1
 169 -97 149 -83 128 -71 c 1
EndSplineSet
EndChar

StartChar: quotesingle
Encoding: 8 39 256
Width: 436
VWidth: 0
Flags: W
PickledData: "(dp1
S'com.typemytype.robofont.layerData'
p2
(dp3
S'back'
p4
(dp5
S'name'
p6
S'quotesingle'
p7
sS'lib'
p8
(dp9
sS'unicodes'
p10
(tsS'width'
p11
I436
sS'contours'
p12
(tsS'components'
p13
(tsS'anchors'
p14
(tsss."
LayerCount: 2
Fore
SplineSet
128 1476 m 1
 146 1640 l 1
 320 1640 l 1
 316 1460 319 1278 159 1165 c 1
 110 1228 l 1
 135 1251 186 1318 189 1438 c 1
 169 1450 149 1464 128 1476 c 1
EndSplineSet
EndChar

StartChar: r
Encoding: 83 114 257
Width: 611
VWidth: 0
Flags: W
PickledData: "(dp1
S'com.typemytype.robofont.layerData'
p2
(dp3
S'back'
p4
(dp5
S'name'
p6
S'r'
sS'lib'
p7
(dp8
sS'unicodes'
p9
(tsS'width'
p10
I611
sS'contours'
p11
(tsS'components'
p12
(tsS'anchors'
p13
(tsss."
LayerCount: 2
Fore
SplineSet
262 1023 m 1
 265 855 l 1
 344 998 457 1042 569 1042 c 1
 569 913 l 1
 340 913 267 716 267 586 c 2
 267 0 l 1
 125 0 l 1
 125 1023 l 1
 262 1023 l 1
306 1023 m 0
306 0 m 0
EndSplineSet
EndChar

StartChar: registered
Encoding: 293 174 260
Width: 1702
VWidth: 0
Flags: W
PickledData: "(dp1
S'com.typemytype.robofont.layerData'
p2
(dp3
S'back'
p4
(dp5
S'name'
p6
S'registered'
p7
sS'lib'
p8
(dp9
sS'unicodes'
p10
(tsS'width'
p11
I1702
sS'contours'
p12
(tsS'components'
p13
(tsS'anchors'
p14
(tsss."
LayerCount: 2
Fore
SplineSet
1579 774 m 0
 1579 375 1251 47 850 47 c 0
 451 47 123 375 123 774 c 0
 123 1175 451 1503 850 1503 c 0
 1251 1503 1579 1175 1579 774 c 0
664 1184 m 1
 664 846 l 1
 849 846 l 2
 967 846 1092 864 1092 1015 c 0
 1092 1169 960 1184 848 1184 c 2
 664 1184 l 1
857 1248 m 2
 1071 1248 1179 1173 1179 1017 c 0
 1179 900 1115 829 1000 793 c 1
 1023 720 1073 630 1111 547 c 2
 1186 379 l 1
 1099 379 l 1
 916 779 l 1
 661 779 l 1
 661 381 l 1
 578 381 l 1
 578 1248 l 1
 857 1248 l 2
849 100 m 0
 1220 100 1523 403 1523 773 c 0
 1523 1144 1220 1447 849 1447 c 0
 479 1447 176 1144 176 773 c 0
 176 403 479 100 849 100 c 0
784 0 m 1
 784 0 l 1
859 1436 m 1
 859 1436 l 1
EndSplineSet
EndChar

StartChar: ring
Encoding: 294 730 261
Width: 728
VWidth: 0
Flags: W
PickledData: "(dp1
S'com.typemytype.robofont.layerData'
p2
(dp3
S'back'
p4
(dp5
S'name'
p6
S'ring'
p7
sS'lib'
p8
(dp9
sS'unicodes'
p10
(tsS'width'
p11
I728
sS'contours'
p12
(tsS'components'
p13
(tsS'anchors'
p14
(tsss."
LayerCount: 2
Fore
SplineSet
364 1592 m 0
 217 1592 143 1482 143 1374 c 0
 143 1266 216 1160 364 1160 c 0
 515 1160 591 1268 591 1376 c 0
 591 1484 516 1592 364 1592 c 0
241 1376 m 0
 241 1439 282 1502 364 1502 c 0
 446 1502 487 1439 487 1376 c 0
 487 1313 446 1249 364 1249 c 0
 282 1249 241 1313 241 1376 c 0
364 1023 m 0
EndSplineSet
EndChar

StartChar: s
Encoding: 84 115 262
Width: 976
VWidth: 0
Flags: W
PickledData: "(dp1
S'com.typemytype.robofont.layerData'
p2
(dp3
S'back'
p4
(dp5
S'name'
p6
S's'
sS'lib'
p7
(dp8
sS'unicodes'
p9
(tsS'width'
p10
I976
sS'contours'
p11
(tsS'components'
p12
(tsS'anchors'
p13
(tsss."
LayerCount: 2
Fore
SplineSet
122 761 m 0
 122 946 293 1044 512 1044 c 0
 689 1044 796 998 880 851 c 1
 880 851 778 788 778 787 c 1
 716 902 652 937 520 937 c 0
 350 937 251 873 251 747 c 0
 251 632 386 607 533 580 c 0
 755 539 889 455 889 272 c 0
 889 76 748.385 -24 477 -24 c 0
 313 -24 117 45 79 269 c 1
 184 310 l 1
 228 155 313 83 490 83 c 0
 632 83 761 129 761 268 c 0
 761 393.072 688 422 440 474 c 0
 271 510 122 559.878 122 761 c 0
488 1023 m 0
488 0 m 0
EndSplineSet
EndChar

StartChar: section
Encoding: 100 167 266
Width: 976
VWidth: 0
Flags: W
PickledData: "(dp1
S'com.typemytype.robofont.layerData'
p2
(dp3
S'back'
p4
(dp5
S'name'
p6
S'section'
p7
sS'lib'
p8
(dp9
sS'unicodes'
p10
(tsS'width'
p11
I976
sS'contours'
p12
(tsS'components'
p13
(tsS'anchors'
p14
(tsss."
LayerCount: 2
Fore
SplineSet
122 761 m 0
 122 946 293 1044 512 1044 c 0
 689 1044 796 998 880 851 c 1
 880 851 778 788 778 787 c 1
 716 902 652 937 520 937 c 0
 350 937 251 873 251 747 c 0
 251 632 386 607 533 580 c 0
 755 539 889 455 889 272 c 0
 889 76 748.385 -24 477 -24 c 0
 313 -24 117 45 79 269 c 1
 184 310 l 1
 228 155 313 83 490 83 c 0
 632 83 761 129 761 268 c 0
 761 393.072 688 422 440 474 c 0
 271 510 122 559.878 122 761 c 0
EndSplineSet
EndChar

StartChar: semicolon
Encoding: 28 59 267
Width: 478
VWidth: 0
Flags: W
PickledData: "(dp1
S'com.typemytype.robofont.layerData'
p2
(dp3
S'back'
p4
(dp5
S'name'
p6
S'semicolon'
p7
sS'lib'
p8
(dp9
sS'unicodes'
p10
(tsS'width'
p11
I478
sS'contours'
p12
(tsS'components'
p13
(tsS'anchors'
p14
(tsss."
LayerCount: 2
Fore
SplineSet
155 235 m 1
 330 235 l 1
 329 157 l 1
 324 11 299 -122 164 -200 c 1
 144 -126 l 1
 157 -119 206 -66 209 40 c 1
 203 57 153 50 147 73 c 1
 150 128 153 183 155 235 c 1
153 846 m 1
 208 851 265 854 325 854 c 1
 331 784 333 712 333 637 c 1
 278 632 220 630 160 630 c 1
 155 699 153 771 153 846 c 1
EndSplineSet
EndChar

StartChar: seven
Encoding: 24 55 268
Width: 992
VWidth: 0
Flags: W
PickledData: "(dp1
S'com.typemytype.robofont.layerData'
p2
(dp3
S'back'
p4
(dp5
S'name'
p6
S'seven'
p7
sS'lib'
p8
(dp9
sS'unicodes'
p10
(tsS'width'
p11
I992
sS'contours'
p12
(tsS'components'
p13
(tsS'anchors'
p14
(tsss."
LayerCount: 2
Fore
SplineSet
134 1348 m 1
 122 1464 l 1
 860 1464 l 1
 860 1351 l 1
 303 -1 l 1
 134 1 l 1
 691 1348 l 1
 134 1348 l 1
EndSplineSet
EndChar

StartChar: six
Encoding: 23 54 269
Width: 1228
VWidth: 0
Flags: W
PickledData: "(dp1
S'com.typemytype.robofont.layerData'
p2
(dp3
S'back'
p4
(dp5
S'name'
p6
S'six'
p7
sS'lib'
p8
(dp9
sS'unicodes'
p10
(tsS'width'
p11
I1228
sS'contours'
p12
(tsS'components'
p13
(tsS'anchors'
p14
(tsss."
LayerCount: 2
Fore
SplineSet
303.244 827.73 m 1
 407.134 902.647 521.09 946 634.54 946 c 0
 881.344 946 1096 789.455 1096 484 c 0
 1096 233.845 932.882 -24 635.515 -24 c 0
 293.773 -24 137 252.885 137 700 c 0
 137 1201.43 351.896 1491 654.043 1491 c 0
 752.101 1491 859.571 1460.24 975.597 1396.23 c 1
 934.8 1284.71 l 1
 832.038 1342.73 737.675 1372 655.992 1372 c 0
 452.629 1372 325.535 1194.6 303.244 827.73 c 1
297.129 698.104 m 1
 296.088 674.052 296 630.186 296 607 c 0
 296 350.45 366.418 92 636.49 92 c 0
 802.15 92 945 234.383 945 480 c 0
 945 732.049 804.972 827 633.565 827 c 0
 523.114 827 397.092 772.797 297.129 698.104 c 1
EndSplineSet
EndChar

StartChar: slash
Encoding: 16 47 270
Width: 592
VWidth: 0
Flags: W
PickledData: "(dp1
S'com.typemytype.robofont.layerData'
p2
(dp3
S'back'
p4
(dp5
S'name'
p6
S'slash'
p7
sS'lib'
p8
(dp9
sS'unicodes'
p10
(tsS'width'
p11
I592
sS'contours'
p12
(tsS'components'
p13
(tsS'anchors'
p14
(tsss."
LayerCount: 2
Fore
SplineSet
152 -35 m 1
 47 -5 l 1
 444 1464 l 1
 548 1434 l 1
 152 -35 l 1
EndSplineSet
EndChar

StartChar: sterling
Encoding: 98 163 272
Width: 1168
VWidth: 0
Flags: W
PickledData: "(dp1
S'com.typemytype.robofont.layerData'
p2
(dp3
S'back'
p4
(dp5
S'name'
p6
S'sterling'
p7
sS'lib'
p8
(dp9
sS'unicodes'
p10
(tsS'width'
p11
I1168
sS'contours'
p12
(tsS'components'
p13
(tsS'anchors'
p14
(tsss."
LayerCount: 2
Fore
SplineSet
227 808 m 1
 227 1227 305 1491 659 1491 c 0
 875 1491 995 1377 1061 1101 c 1
 937 1070 l 1
 901 1239 848 1374 664 1375 c 0
 663 1375 662 1375 660 1375 c 0
 405 1375 373 1162 373 808 c 1
 373 808 l 1
 710 808 l 1
 710 695 l 1
 368 695 l 1
 368 590 l 2
 368 483.125 374.27027027 284.891891892 294 128 c 1
 294 128 492 224 661 224 c 0
 803 224 905 180 1056 129 c 1
 1008 0 l 1
 869 50 808 95 650 95 c 0
 557 95 430 63 232 -30 c 1
 116 60 l 1
 208 249 223 471 223 596 c 2
 223 695 l 1
 66 695 l 1
 66 808 l 1
 227 808 l 1
EndSplineSet
EndChar

StartChar: t
Encoding: 85 116 273
Width: 696
VWidth: 0
Flags: W
PickledData: "(dp1
S'com.typemytype.robofont.layerData'
p2
(dp3
S'back'
p4
(dp5
S'name'
p6
S't'
sS'lib'
p7
(dp8
sS'unicodes'
p9
(tsS'width'
p10
I696
sS'contours'
p11
(tsS'components'
p12
(tsS'anchors'
p13
(tsss."
LayerCount: 2
Fore
SplineSet
610 116 m 1
 640 24 l 1
 593 -6 530 -24 464 -24 c 0
 288 -24 213 84 213 325 c 2
 213 924 l 1
 60 924 l 1
 60 1023 l 1
 222 1023 l 1
 222 1370 l 1
 355 1387 l 1
 355 1023 l 1
 579 1023 l 1
 579 924 l 1
 355 924 l 1
 355 264 l 2
 355 135 413 86 493 86 c 0
 529 86 569 98 610 116 c 1
348 0 m 0
348 512 m 0
EndSplineSet
EndChar

StartChar: thorn
Encoding: 298 254 275
Width: 1095
VWidth: 0
Flags: W
PickledData: "(dp1
S'com.typemytype.robofont.layerData'
p2
(dp3
S'back'
p4
(dp5
S'name'
p6
S'thorn'
p7
sS'lib'
p8
(dp9
sS'unicodes'
p10
(tsS'width'
p11
I1095
sS'contours'
p12
(tsS'components'
p13
(tsS'anchors'
p14
(tsss."
LayerCount: 2
Fore
SplineSet
281 1464 m 1
 281 874 l 1
 344 982 440 1044 582 1044 c 0
 857 1044 976 812 976 520 c 0
 976 217 855 -21 589 -24 c 1
 450 -24 340 40 281 154 c 1
 282 110 282 65 282 21 c 2
 282 -378 l 1
 140 -394 l 1
 140 1464 l 1
 281 1464 l 1
831 521 m 0
 831 810 702 943 568 943 c 0
 427 943 282 793 282 519 c 0
 282 294 336 81 568 81 c 0
 733 81 831 243 831 521 c 0
EndSplineSet
EndChar

StartChar: three
Encoding: 20 51 276
Width: 1133
VWidth: 0
Flags: W
PickledData: "(dp1
S'com.typemytype.robofont.layerData'
p2
(dp3
S'back'
p4
(dp5
S'name'
p6
S'three'
p7
sS'lib'
p8
(dp9
sS'unicodes'
p10
(tsS'width'
p11
I1133
sS'contours'
p12
(tsS'components'
p13
(tsS'anchors'
p14
(tsss."
LayerCount: 2
Fore
SplineSet
943 1137 m 0
 943 1318 800 1493 550 1493 c 0
 380 1493 215 1408 153 1239 c 1
 261 1175 l 1
 325 1314 445 1381 557 1381 c 0
 723 1381 800 1261 800 1140 c 0
 800 1006 708 868 458 864 c 1
 460 744 l 1
 489 748 519 751 549 751 c 0
 756 751 865 573 865 396 c 0
 865 245 759 94 550 94 c 0
 394 94 285 185 230 358 c 1
 110 317 l 1
 171 70 368 -24 562 -24 c 0
 855 -24 1014 196 1014 403 c 0
 1014 581 920 744 720 813 c 1
 865 879 943 1000 943 1137 c 0
EndSplineSet
EndChar

StartChar: threequarters
Encoding: 299 190 277
Width: 1441
VWidth: 0
Flags: W
PickledData: "(dp1
S'com.typemytype.robofont.layerData'
p2
(dp3
S'back'
p4
(dp5
S'name'
p6
S'threequarters'
p7
sS'lib'
p8
(dp9
sS'unicodes'
p10
(tsS'width'
p11
F1441
sS'contours'
p12
(tsS'components'
p13
(tsS'anchors'
p14
(tsss."
LayerCount: 2
Fore
SplineSet
189 -14 m 1
 1424 1415 l 1
 1347 1481 l 1
 111 52 l 1
 189 -14 l 1
1096 152 m 1
 1096 0 l 1
 1211 0 l 1
 1211 152 l 1
 1311 152 l 1
 1311 234 l 1
 1211 234 l 1
 1211 693 l 1
 1065 693 l 1
 745 220 l 1
 745 152 l 1
 1096 152 l 1
859 234 m 1
 1096 585 l 1
 1096 234 l 1
 859 234 l 1
581 1308 m 0
 581 1396 505 1481 363 1481 c 0
 281 1481 180 1440 150 1358 c 1
 223 1307 l 1
 251 1368 310 1396 364 1396 c 0
 438 1396 471 1356 471 1298 c 0
 471 1233 440 1184 318 1182 c 1
 318 1095 l 1
 454 1095 506 1040 506 953 c 0
 506 895 456 834 376 834 c 0
 300 834 234 866 208 950 c 1
 130 910 l 1
 159 791 275 746 369 745 c 1
 534 745 621 851 615 960 c 0
 610 1043 572 1111 459 1144 c 1
 540 1173 581 1242 581 1308 c 0
EndSplineSet
EndChar

StartChar: tilde
Encoding: 300 732 278
Width: 798
VWidth: 0
Flags: W
PickledData: "(dp1
S'com.typemytype.robofont.layerData'
p2
(dp3
S'back'
p4
(dp5
S'name'
p6
S'tilde'
p7
sS'lib'
p8
(dp9
sS'unicodes'
p10
(tsS'width'
p11
I798
sS'contours'
p12
(tsS'components'
p13
(tsS'anchors'
p14
(tsss."
LayerCount: 2
Fore
SplineSet
223 1200 m 1
 127 1200 l 1
 125 1215 125 1229 125 1241 c 0
 125 1370 196 1391 253 1391 c 0
 331 1391 477 1299 537 1299 c 0
 560 1299 576 1336 576 1395 c 1
 673 1395 l 1
 674 1383 675 1371 675 1360 c 0
 675 1239 598 1202 540 1202 c 0
 446 1202 331 1288 273 1288 c 0
 252 1288 223 1262 223 1200 c 1
400 1023 m 0
EndSplineSet
EndChar

StartChar: trademark
Encoding: 301 8482 279
Width: 1847
VWidth: 0
Flags: W
PickledData: "(dp1
S'com.typemytype.robofont.layerData'
p2
(dp3
S'back'
p4
(dp5
S'name'
p6
S'trademark'
p7
sS'lib'
p8
(dp9
sS'unicodes'
p10
(tsS'width'
p11
I1847
sS'contours'
p12
(tsS'components'
p13
(tsS'anchors'
p14
(tsss."
LayerCount: 2
Fore
SplineSet
116 1370 m 1
 116 1465 l 1
 757 1465 l 1
 757 1370 l 1
 492 1370 l 1
 492 616 l 1
 378 616 l 1
 378 1370 l 1
 116 1370 l 1
938 616 m 1
 938 1465 l 1
 1081 1465 l 1
 1331 876 l 1
 1415 1072 1503 1268 1587 1464 c 1
 1718 1464 l 1
 1718 616 l 1
 1614 616 l 1
 1614 1267 l 1
 1373 732 l 1
 1280 732 l 1
 1046 1270 l 1
 1046 616 l 1
 938 616 l 1
EndSplineSet
EndChar

StartChar: two
Encoding: 19 50 280
Width: 1247
VWidth: 0
Flags: W
PickledData: "(dp1
S'com.typemytype.robofont.layerData'
p2
(dp3
S'back'
p4
(dp5
S'name'
p6
S'two'
p7
sS'lib'
p8
(dp9
sS'unicodes'
p10
(tsS'width'
p11
F1247.72
sS'contours'
p12
(tsS'components'
p13
(tsS'anchors'
p14
(tsss."
LayerCount: 2
Fore
SplineSet
125 1135 m 1
 254 1083 l 1
 337 1265 438 1370 641 1370 c 0
 801 1370 949 1263 949 1062 c 0
 949 627 185 481 169 0 c 1
 1088 0 l 1
 1088 121 l 1
 349 121 l 1
 479 448 1109 590 1109 1051 c 0
 1109 1354 872 1492 625 1492 c 0
 400 1492 216 1392 125 1135 c 1
EndSplineSet
EndChar

StartChar: u
Encoding: 86 117 281
Width: 1122
VWidth: 0
Flags: W
PickledData: "(dp1
S'com.typemytype.robofont.layerData'
p2
(dp3
S'back'
p4
(dp5
S'name'
p6
S'u'
sS'lib'
p7
(dp8
sS'unicodes'
p9
(tsS'width'
p10
I1122
sS'contours'
p11
((dp12
S'points'
p13
((dp14
S'segmentType'
p15
S'line'
p16
sS'x'
F970
sS'smooth'
p17
I00
sS'y'
F1023
s(dp18
g15
S'line'
p19
sS'x'
F970
sg17
I00
sS'y'
F0
s(dp20
g15
S'line'
p21
sS'x'
F832
sg17
I00
sS'y'
F0
s(dp22
S'y'
F0
sS'x'
F832
sg17
I00
s(dp23
S'y'
F194
sS'x'
F832
sg17
I00
s(dp24
g15
S'curve'
p25
sS'x'
F832
sg17
I01
sS'y'
F193
s(dp26
S'y'
F40
sS'x'
F780
sg17
I00
s(dp27
S'y'
F-21
sS'x'
F606
sg17
I00
s(dp28
g15
S'curve'
p29
sS'x'
F474
sg17
I01
sS'y'
F-21
s(dp30
S'y'
F-21
sS'x'
F151
sg17
I00
s(dp31
S'y'
F233
sS'x'
F120
sg17
I00
s(dp32
g15
S'curve'
p33
sS'x'
F120
sg17
I01
sS'y'
F439
s(dp34
g15
S'line'
p35
sS'x'
F120
sg17
I00
sS'y'
F1023
s(dp36
g15
S'line'
p37
sS'x'
F262
sg17
I00
sS'y'
F1023
s(dp38
g15
S'line'
p39
sS'x'
F262
sg17
I01
sS'y'
F420
s(dp40
S'y'
F217
sS'x'
F262
sg17
I00
s(dp41
S'y'
F93
sS'x'
F315
sg17
I00
s(dp42
g15
S'curve'
p43
sS'x'
F494
sg17
I01
sS'y'
F93
s(dp44
S'y'
F93
sS'x'
F757
sg17
I00
s(dp45
S'y'
F284
sS'x'
F828
sg17
I00
s(dp46
g15
S'curve'
p47
sS'x'
F828
sg17
I01
sS'y'
F524
s(dp48
g15
S'line'
p49
sS'x'
F828
sg17
I00
sS'y'
F1023
stp50
stp51
sS'components'
p52
(tsS'anchors'
p53
((dp54
S'y'
F1023
sS'x'
F547
sg6
S'bottom'
p55
s(dp56
S'y'
F0
sS'x'
F547
sg6
S'top'
p57
stp58
sss."
LayerCount: 2
Fore
SplineSet
828 436 m 2
 828 1023 l 1
 970 1023 l 1
 970 0 l 1
 832 0 l 1
 832 192 l 1
 775 40 604 -24 467 -24 c 0
 152 -24 120 235 120 436 c 2
 120 1023 l 1
 262 1023 l 1
 262 406 l 2
 262 209 321 87 492 87 c 0
 755 87 828 314 828 436 c 2
561 1023 m 0
1010 10 m 0
EndSplineSet
EndChar

StartChar: underscore
Encoding: 64 95 289
Width: 870
VWidth: 0
Flags: W
PickledData: "(dp1
S'com.typemytype.robofont.layerData'
p2
(dp3
S'back'
p4
(dp5
S'name'
p6
S'underscore'
p7
sS'lib'
p8
(dp9
sS'unicodes'
p10
(tsS'width'
p11
I870
sS'contours'
p12
(tsS'components'
p13
(tsS'anchors'
p14
(tsss."
LayerCount: 2
Fore
SplineSet
135 -1 m 1
 735 -1 l 1
 735 -49 l 1
 135 -49 l 1
 135 -1 l 1
EndSplineSet
EndChar

StartChar: uni00B2
Encoding: 108 178 290
Width: 1230
VWidth: 0
Flags: W
PickledData: "(dp1
S'com.typemytype.robofont.layerData'
p2
(dp3
S'back'
p4
(dp5
S'name'
p6
S'uni00B2'
p7
sS'lib'
p8
(dp9
sS'unicodes'
p10
(tsS'width'
p11
I1230
sS'contours'
p12
(tsS'components'
p13
(tsS'anchors'
p14
(tsss."
LayerCount: 2
Fore
SplineSet
860 859 m 1
 530 859 l 1
 621 1014 858 1058 858 1276 c 0
 858 1419 736 1491 619 1491 c 0
 513 1491 407 1437 364 1316 c 1
 379 1310 454 1272 454 1271 c 1
 472 1353 547 1396 618 1396 c 0
 686 1396 750 1355 750 1269 c 0
 750 1268 750 1267 750 1266 c 0
 750 1115 392 1004 385 779 c 1
 860 779 l 1
 860 859 l 1
EndSplineSet
EndChar

StartChar: uni00B3
Encoding: 109 179 291
Width: 772
VWidth: 0
Flags: W
PickledData: "(dp1
S'com.typemytype.robofont.layerData'
p2
(dp3
S'back'
p4
(dp5
S'name'
p6
S'uni00B3'
p7
sS'lib'
p8
(dp9
sS'unicodes'
p10
(tsS'width'
p11
F772.29082806300005
sS'contours'
p12
(tsS'components'
p13
(tsS'anchors'
p14
(tsss."
LayerCount: 2
Fore
SplineSet
363 1481 m 0
 281 1481 180 1440 150 1358 c 1
 223 1307 l 1
 251 1368 310 1396 364 1396 c 0
 438 1396 471 1356 471 1298 c 0
 471 1233 440 1184 318 1182 c 1
 318 1095 l 1
 454 1095 506 1040 506 953 c 0
 506 895 456 834 376 834 c 0
 300 834 234 866 208 950 c 1
 130 910 l 1
 159 791 275 746 369 745 c 1
 534 745 621 851 615 960 c 0
 610 1043 572 1111 459 1144 c 1
 540 1173 581 1242 581 1308 c 0
 581 1396 505 1481 363 1481 c 0
EndSplineSet
EndChar

StartChar: uni00B5
Encoding: 111 181 292
Width: 1122
VWidth: 0
Flags: W
PickledData: "(dp1
S'com.typemytype.robofont.layerData'
p2
(dp3
S'back'
p4
(dp5
S'name'
p6
S'uni00B5'
p7
sS'lib'
p8
(dp9
sS'unicodes'
p10
(tsS'width'
p11
I1122
sS'contours'
p12
(tsS'components'
p13
(tsS'anchors'
p14
(tsss."
LayerCount: 2
Fore
SplineSet
828 436 m 2
 828 1023 l 1
 970 1023 l 1
 970 0 l 1
 833 0 l 1
 829 159 l 1
 741 21 604 -24 467 -24 c 0
 152 -24 121 235 121 436 c 2
 121 1023 l 1
 268 1023 l 1
 268 406 l 2
 268 209 321 87 492 87 c 0
 755 87 828 331 828 436 c 2
EndSplineSet
EndChar

StartChar: uni00B9
Encoding: 304 185 293
Width: 546
VWidth: 0
Flags: W
PickledData: "(dp1
S'com.typemytype.robofont.layerData'
p2
(dp3
S'back'
p4
(dp5
S'name'
p6
S'uni00B9'
p7
sS'lib'
p8
(dp9
sS'unicodes'
p10
(tsS'width'
p11
I546
sS'contours'
p12
(tsS'components'
p13
(tsS'anchors'
p14
(tsss."
LayerCount: 2
Fore
SplineSet
262 769 m 1
 375 769 l 1
 375 1464 l 1
 272 1464 l 1
 124 1397 l 1
 145 1307 l 1
 262 1365 l 1
 262 769 l 1
EndSplineSet
EndChar

StartChar: uni0237
Encoding: 308 567 297
Width: 530
VWidth: 0
Flags: W
PickledData: "(dp1
S'com.typemytype.robofont.layerData'
p2
(dp3
S'back'
p4
(dp5
S'name'
p6
S'uni0237'
p7
sS'lib'
p8
(dp9
sS'unicodes'
p10
(tsS'width'
p11
I530
sS'contours'
p12
(tsS'components'
p13
(tsS'anchors'
p14
(tsss."
LayerCount: 2
Fore
SplineSet
262 -87 m 2
 262 1023 l 1
 404 1023 l 1
 404 -12 l 2
 404 -217 377 -325 185 -325 c 0
 134 -325 81 -309 33 -281 c 1
 57 -191 l 1
 95 -205 133 -214 166 -214 c 0
 225 -214 262 -178 262 -87 c 2
EndSplineSet
EndChar

StartChar: uni0307
Encoding: 309 775 298
Width: 539
VWidth: 0
Flags: HW
PickledData: "(dp1
S'com.typemytype.robofont.layerData'
p2
(dp3
S'back'
p4
(dp5
S'name'
p6
S'uni0307'
p7
sS'lib'
p8
(dp9
sS'unicodes'
p10
(tsS'width'
p11
I539
sS'contours'
p12
(tsS'components'
p13
(tsS'anchors'
p14
(tsss."
LayerCount: 2
Fore
SplineSet
270 1268 m 0
 188.720337057 1268 147.920088237 1330.4130628 147.920088237 1392.7444341 c 0
 147.920088237 1454.91284951 188.507283842 1517 270 1517 c 0
 351.496586763 1517 392.079518213 1454.91921477 392.079518213 1392.75399473 c 0
 392.079518213 1330.41944507 351.275200884 1268 270 1268 c 0
EndSplineSet
EndChar

StartChar: uni030F
Encoding: 310 783 299
Width: 744
VWidth: 0
Flags: W
PickledData: "(dp1
S'com.typemytype.robofont.layerData'
p2
(dp3
S'back'
p4
(dp5
S'name'
p6
S'uni030F'
p7
sS'lib'
p8
(dp9
sS'unicodes'
p10
(tsS'width'
p11
I744
sS'contours'
p12
(tsS'components'
p13
(tsS'anchors'
p14
(tsss."
LayerCount: 2
Fore
SplineSet
61 1492 m 1
 256 1492 l 1
 381 1172 l 1
 289 1172 l 1
 61 1492 l 1
359 1492 m 1
 554 1492 l 1
 679 1172 l 1
 587 1172 l 1
 359 1492 l 1
EndSplineSet
EndChar

StartChar: uni0311
Encoding: 311 785 300
Width: 805
VWidth: 0
Flags: W
PickledData: "(dp1
S'com.typemytype.robofont.layerData'
p2
(dp3
S'back'
p4
(dp5
S'name'
p6
S'uni0311'
p7
sS'lib'
p8
(dp9
sS'unicodes'
p10
(tsS'width'
p11
I805
sS'contours'
p12
(tsS'components'
p13
(tsS'anchors'
p14
(tsss."
LayerCount: 2
Fore
SplineSet
402 1438 m 0
 539 1438 674 1353 678 1183 c 1
 552 1183 l 1
 549 1276 476 1322 402 1322 c 0
 328 1322 255 1276 252 1183 c 1
 126 1183 l 1
 130 1353 265 1438 402 1438 c 0
EndSplineSet
EndChar

StartChar: uni0326
Encoding: 312 806 301
Width: 409
VWidth: 0
Flags: W
PickledData: "(dp1
S'com.typemytype.robofont.layerData'
p2
(dp3
S'back'
p4
(dp5
S'name'
p6
S'uni0326'
p7
sS'lib'
p8
(dp9
sS'unicodes'
p10
(tsS'width'
p11
I409
sS'contours'
p12
(tsS'components'
p13
(tsS'anchors'
p14
(tsss."
LayerCount: 2
Fore
SplineSet
210 -168 m 1
 130 -168 l 1
 130 0 l 1
 280 0 l 1
 280 -160 l 2
 280 -279.492 233.01 -366.059 190.058 -366.059 c 1
 143 -344 l 1
 200.671 -301.14 209.152 -219.067 210 -168 c 1
EndSplineSet
EndChar

StartChar: uni2074
Encoding: 313 8308 302
Width: 1441
VWidth: 0
Flags: W
PickledData: "(dp1
S'com.typemytype.robofont.layerData'
p2
(dp3
S'back'
p4
(dp5
S'name'
p6
S'uni2074'
p7
sS'lib'
p8
(dp9
sS'unicodes'
p10
(tsS'width'
p11
F1441
sS'contours'
p12
(tsS'components'
p13
(tsS'anchors'
p14
(tsss."
LayerCount: 2
Fore
SplineSet
590 924 m 1
 590 772 l 1
 705 772 l 1
 705 924 l 1
 805 924 l 1
 805 1006 l 1
 705 1006 l 1
 705 1465 l 1
 559 1465 l 1
 239 992 l 1
 239 924 l 1
 590 924 l 1
353 1006 m 1
 590 1357 l 1
 590 1006 l 1
 353 1006 l 1
EndSplineSet
EndChar

StartChar: uniFB01
Encoding: 314 64257 303
Width: 1071
VWidth: 0
Flags: W
PickledData: "(dp1
S'com.typemytype.robofont.layerData'
p2
(dp3
S'back'
p4
(dp5
S'name'
p6
S'uniFB01'
p7
sS'lib'
p8
(dp9
sS'unicodes'
p10
(tsS'width'
p11
I1071
sS'contours'
p12
(tsS'components'
p13
(tsS'anchors'
p14
(tsss."
LayerCount: 2
Fore
SplineSet
793 1242 m 1
 793 1421 l 1
 934 1421 l 1
 934 1242 l 1
 793 1242 l 1
468 1365 m 0
 368 1365 367 1275 367 1137 c 2
 367 1023 l 1
 937 1023 l 1
 937 0 l 1
 795 0 l 1
 795 917 l 1
 367 917 l 1
 367 -1 l 1
 225 -1 l 1
 225 917 l 1
 52 917 l 1
 52 1023 l 1
 225 1023 l 1
 225 1140 l 2
 225 1361 284 1471 459 1471 c 0
 517 1471 571 1454 615 1430 c 1
 581 1338 l 1
 541 1353 500 1365 468 1365 c 0
EndSplineSet
EndChar

StartChar: uniFB02
Encoding: 315 64258 304
Width: 1072
VWidth: 0
Flags: W
PickledData: "(dp1
S'com.typemytype.robofont.layerData'
p2
(dp3
S'back'
p4
(dp5
S'name'
p6
S'uniFB02'
p7
sS'lib'
p8
(dp9
sS'unicodes'
p10
(tsS'width'
p11
I1072
sS'contours'
p12
(tsS'components'
p13
(tsS'anchors'
p14
(tsss."
LayerCount: 2
Fore
SplineSet
468 1365 m 0
 368 1365 367 1275 367 1137 c 2
 367 1023 l 1
 795 1023 l 1
 795 1474 l 1
 937 1474 l 1
 937 0 l 1
 795 0 l 1
 795 917 l 1
 367 917 l 1
 367 -1 l 1
 225 -1 l 1
 225 917 l 1
 52 917 l 1
 52 1023 l 1
 225 1023 l 1
 225 1140 l 2
 225 1361 284 1471 459 1471 c 0
 517 1471 571 1454 615 1430 c 1
 581 1338 l 1
 541 1353 500 1365 468 1365 c 0
EndSplineSet
EndChar

StartChar: v
Encoding: 87 118 306
Width: 1100
VWidth: 0
Flags: W
PickledData: "(dp1
S'com.typemytype.robofont.layerData'
p2
(dp3
S'back'
p4
(dp5
S'name'
p6
S'v'
sS'lib'
p7
(dp8
sS'unicodes'
p9
(tsS'width'
p10
I1100
sS'contours'
p11
(tsS'components'
p12
(tsS'anchors'
p13
(tsss."
LayerCount: 2
Fore
SplineSet
884 1023 m 1
 1022 1023 l 1
 607 0 l 1
 481 0 l 1
 78 1023 l 1
 230 1023 l 1
 551 162 l 1
 884 1023 l 1
EndSplineSet
EndChar

StartChar: w
Encoding: 88 119 307
Width: 1600
VWidth: 0
Flags: W
PickledData: "(dp1
S'com.typemytype.robofont.layerData'
p2
(dp3
S'back'
p4
(dp5
S'name'
p6
S'w'
sS'lib'
p7
(dp8
sS'unicodes'
p9
(tsS'width'
p10
I1600
sS'contours'
p11
(tsS'components'
p12
(tsS'anchors'
p13
(tsss."
LayerCount: 2
Fore
SplineSet
409 0 m 1
 79 1023 l 1
 231 1023 l 1
 480 177 l 1
 591 515 l 1
 758 1023 l 1
 852 1023 l 1
 1009 516 l 1
 1114 178 l 1
 1381 1023 l 1
 1521 1023 l 1
 1173 0 l 1
 1046 0 l 1
 800 800 l 1
 536 0 l 1
 409 0 l 1
800 1023 m 0
EndSplineSet
EndChar

StartChar: x
Encoding: 89 120 308
Width: 1056
VWidth: 0
Flags: W
PickledData: "(dp1
S'com.typemytype.robofont.layerData'
p2
(dp3
S'back'
p4
(dp5
S'name'
p6
S'x'
sS'lib'
p7
(dp8
sS'unicodes'
p9
(tsS'width'
p10
I1056
sS'contours'
p11
(tsS'components'
p12
(tsS'anchors'
p13
(tsss."
LayerCount: 2
Fore
SplineSet
450 514 m 1
 79 1023 l 1
 233 1023 l 1
 527 619 l 1
 821 1023 l 1
 971 1023 l 1
 603 518 l 1
 983 0 l 1
 829 0 l 1
 526 412 l 1
 226 0 l 1
 76 0 l 1
 450 514 l 1
EndSplineSet
EndChar

StartChar: y
Encoding: 90 121 309
Width: 1069
VWidth: 0
Flags: W
PickledData: "(dp1
S'com.typemytype.robofont.layerData'
p2
(dp3
S'back'
p4
(dp5
S'name'
p6
S'y'
sS'lib'
p7
(dp8
sS'unicodes'
p9
(tsS'width'
p10
I1069
sS'contours'
p11
(tsS'components'
p12
(tsS'anchors'
p13
(tsss."
LayerCount: 2
Fore
SplineSet
466 64 m 1
 74 1023 l 1
 217 1023 l 2
 216 1023 434 459 535 207 c 1
 635 466 737 722 855 1023 c 1
 995 1023 l 1
 873 715 747 405 624 97 c 0
 517 -171 437 -320 209 -320 c 0
 176 -320 141 -316 104 -306 c 1
 119 -193 l 1
 152 -198 181 -200 207 -200 c 0
 302 -200 391 -155 443 -3 c 2
 466 64 l 1
535 1023 m 0
EndSplineSet
EndChar

StartChar: yen
Encoding: 319 165 312
Width: 1358
VWidth: 0
Flags: W
PickledData: "(dp1
S'com.typemytype.robofont.layerData'
p2
(dp3
S'back'
p4
(dp5
S'name'
p6
S'yen'
p7
sS'lib'
p8
(dp9
sS'unicodes'
p10
(tsS'width'
p11
I1358
sS'contours'
p12
(tsS'components'
p13
(tsS'anchors'
p14
(tsss."
LayerCount: 2
Fore
SplineSet
348 544 m 1
 348 630 l 1
 559 630 l 1
 94 1436 l 1
 252 1436 l 1
 680 682 l 1
 1107 1436 l 1
 1264 1436 l 1
 799 630 l 1
 1002 630 l 1
 1002 544 l 1
 752 544 l 1
 752 420 l 1
 1002 420 l 1
 1002 334 l 1
 752 334 l 1
 752 0 l 1
 606 0 l 1
 606 334 l 1
 348 334 l 1
 348 420 l 1
 606 420 l 1
 606 544 l 1
 348 544 l 1
EndSplineSet
EndChar

StartChar: z
Encoding: 91 122 313
Width: 984
VWidth: 0
Flags: W
PickledData: "(dp1
S'com.typemytype.robofont.layerData'
p2
(dp3
S'back'
p4
(dp5
S'name'
p6
S'z'
sS'lib'
p7
(dp8
sS'unicodes'
p9
(tsS'width'
p10
I984
sS'contours'
p11
(tsS'components'
p12
(tsS'anchors'
p13
(tsss."
LayerCount: 2
Fore
SplineSet
141 919 m 1
 141 1023 l 1
 887 1023 l 1
 887 928 l 1
 258 103 l 1
 885 103 l 1
 885 0 l 1
 88 0 l 1
 88 94 l 1
 718 919 l 1
 141 919 l 1
492 1023 m 0
EndSplineSet
EndChar

StartChar: zero
Encoding: 17 48 317
Width: 1445
VWidth: 0
Flags: W
PickledData: "(dp1
S'com.typemytype.robofont.layerData'
p2
(dp3
S'back'
p4
(dp5
S'name'
p6
S'zero'
p7
sS'lib'
p8
(dp9
sS'unicodes'
p10
(tsS'width'
p11
I1445
sS'contours'
p12
(tsS'components'
p13
(tsS'anchors'
p14
(tsss."
LayerCount: 2
Fore
SplineSet
722 -25 m 0
 1063 -25 1231 285 1231 724 c 0
 1231 1164 1062 1491 722 1491 c 0
 382 1491 213 1164 213 724 c 0
 213 285 381 -25 722 -25 c 0
722 1374 m 0
 955 1374 1076 1101 1076 724 c 0
 1076 360 963 93 722 93 c 0
 481 93 368 360 368 724 c 0
 368 1101 489 1374 722 1374 c 0
EndSplineSet
EndChar

StartChar: guilsinglright
Encoding: 329 8250 329
Width: 528
VWidth: 0
Flags: HW
LayerCount: 2
Fore
SplineSet
435 552 m 1
 435 749 l 1
 51 1050 l 1
 51 909 l 1
 337 650 l 1
 51 393 l 1
 51 251 l 1
 435 552 l 1
EndSplineSet
EndChar

